<svg version="1.1" id="main" xmlns="http://www.w3.org/2000/svg" xmlns:xlink="http://www.w3.org/1999/xlink" x="0px" y="0px"
	 width="600px" height="680px" viewBox="0 0 600 680" style="enable-background:new 0 0 600 680;">
<!-- Corner Marks -->
<rect x="580" y="0" id="slider" style="fill:#717171;" width="20" height="20" opacity=".3" display="none"/>
<rect x="580" y="0" style="fill:#717171;" width="20" height="20" opacity=".3" display="none"/>
<rect x="580" y="660" style="fill:#717171;" width="20" height="20" opacity=".3" display="none"/>
<rect y="660" style="fill:#717171;" width="20" height="20" 3=".opacity" display="none"/>


<!-- Gallery Items -->
	<clipPath id="galleryclip">
		<rect id="gallerycliprect" x="70" y="135" width="460" height="545"/> 
	</clipPath>
<g clip-path= "url(#galleryclip)">
	<g id='gallery' y='50'>
		<g class='galleryItem column1'  onclick='galleryClick(evt)' transform='translate(120.5,195.5)'>
			<g id='scale' transform='scale(.8)'>
				<rect fill='#C8C8C8' width='98' height='98' transform='translate(-49,-49)'/>
				<image id="image" transform='translate(-49,-49)' width="98" height="98" xlink:href="" /> 
			</g>
		</g>
		<g class='galleryItem column2' onclick='galleryClick(evt)' transform='translate(240.5,195.5)'>
			<g id='scale' transform='scale(.8)'>
				<rect fill='#C8C8C8' width='98' height='98' transform='translate(-49,-49)'/>
				<image id="image" transform='translate(-49,-49)' width="98" height="98" xlink:href="" /> 
			</g>
		</g>
		<g class='galleryItem column3' onclick='galleryClick(evt)' transform='translate(360.5,195.5)'>
			<g id='scale' transform='scale(.8)'>
				<rect fill='#C8C8C8' width='98' height='98' transform='translate(-49,-49)'/>
				<image id="image" transform='translate(-49,-49)' width="98" height="98" xlink:href="" /> 
			</g>
		</g>
		<g class='galleryItem column4' onclick='galleryClick(evt)' transform='translate(480.5,195.5)'>
			<g id='scale' transform='scale(.8)'>
				<rect fill='#C8C8C8' width='98' height='98' transform='translate(-49,-49)'/>
				<image id="image" transform='translate(-49,-49)' width="98" height="98" xlink:href="" /> 
			</g>
		</g>

		<g class='galleryItem column1' onclick='galleryClick(evt)' transform='translate(120.5,315.5)'>
			<g id='scale' transform='scale(.8)'>
				<rect fill='#C8C8C8' width='98' height='98' transform='translate(-49,-49)'/>
				<image id="image" transform='translate(-49,-49)' width="98" height="98" xlink:href="" /> 
			</g>
		</g>
		<g class='galleryItem column2' onclick='galleryClick(evt)' transform='translate(240.5,315.5)'>
			<g id='scale' transform='scale(.8)'>
				<rect fill='#C8C8C8' width='98' height='98' transform='translate(-49,-49)'/>
				<image id="image" transform='translate(-49,-49)' width="98" height="98" xlink:href="" /> 
			</g>
		</g>
		<g class='galleryItem column3' onclick='galleryClick(evt)' transform='translate(360.5,315.5)'>
			<g id='scale' transform='scale(.8)'>
				<rect fill='#C8C8C8' width='98' height='98' transform='translate(-49,-49)'/>
				<image id="image" transform='translate(-49,-49)' width="98" height="98" xlink:href="" /> 
			</g>
		</g>
		<g class='galleryItem column4' onclick='galleryClick(evt)' transform='translate(480.5,315.5)'>
			<g id='scale' transform='scale(.8)'>
				<rect fill='#C8C8C8' width='98' height='98' transform='translate(-49,-49)'/>
				<image id="image" transform='translate(-49,-49)' width="98" height="98" xlink:href="" /> 
			</g>
		</g>
		
		<g class='galleryItem column1' onclick='galleryClick(evt)' transform='translate(120.5,435.5)'>
			<g id='scale' transform='scale(.8)'>
				<rect fill='#C8C8C8' width='98' height='98' transform='translate(-49,-49)'/>
				<image id="image" transform='translate(-49,-49)' width="98" height="98" xlink:href="" /> 
			</g>
		</g>
		<g class='galleryItem column2' onclick='galleryClick(evt)' transform='translate(240.5,435.5)'>
			<g id='scale' transform='scale(.8)'>
				<rect fill='#C8C8C8' width='98' height='98' transform='translate(-49,-49)'/>
				<image id="image" transform='translate(-49,-49)' width="98" height="98" xlink:href="" /> 
			</g>
		</g>
		<g class='galleryItem column3' onclick='galleryClick(evt)' transform='translate(360.5,435.5)'>
			<g id='scale' transform='scale(.8)'>
				<rect fill='#C8C8C8' width='98' height='98' transform='translate(-49,-49)'/>
				<image id="image" transform='translate(-49,-49)' width="98" height="98" xlink:href="" /> 
			</g>
		</g>
		<g class='galleryItem column4' onclick='galleryClick(evt)' transform='translate(480.5,435.5)'>
			<g id='scale' transform='scale(.8)'>
				<rect fill='#C8C8C8' width='98' height='98' transform='translate(-49,-49)'/>
				<image id="image" transform='translate(-49,-49)' width="98" height="98" xlink:href="" /> 
			</g>
		</g>
		
		<g class='galleryItem column1' onclick='galleryClick(evt)' transform='translate(120.5,555.5)'>
			<g id='scale' transform='scale(.8)'>
				<rect fill='#C8C8C8' width='98' height='98' transform='translate(-49,-49)'/>
				<image id="image" transform='translate(-49,-49)' width="98" height="98" xlink:href="" /> 
			</g>
		</g>
		<g class='galleryItem column2' onclick='galleryClick(evt)' transform='translate(240.5,555.5)'>
			<g id='scale' transform='scale(.8)'>
				<rect fill='#C8C8C8' width='98' height='98' transform='translate(-49,-49)'/>
				<image id="image" transform='translate(-49,-49)' width="98" height="98" xlink:href="" /> 
			</g>
		</g>
		<g class='galleryItem column3' onclick='galleryClick(evt)' transform='translate(360.5,555.5)'>
			<g id='scale' transform='scale(.8)'>
				<rect fill='#C8C8C8' width='98' height='98' transform='translate(-49,-49)'/>
				<image id="image" transform='translate(-49,-49)' width="98" height="98" xlink:href="" /> 
			</g>
		</g>
		<g class='galleryItem column4' onclick='galleryClick(evt)' transform='translate(480.5,555.5)'>
			<g id='scale' transform='scale(.8)'>
				<rect fill='#C8C8C8' width='98' height='98' transform='translate(-49,-49)'/>
				<image id="image" transform='translate(-49,-49)' width="98" height="98" xlink:href="" /> 
			</g>
		</g>
		
		<g class='galleryItem column1' onclick='galleryClick(evt)' transform='translate(120.5,675.5)'>
			<g id='scale' transform='scale(.8)'>
				<rect fill='#C8C8C8' width='98' height='98' transform='translate(-49,-49)'/>
				<image id="image" transform='translate(-49,-49)' width="98" height="98" xlink:href="" /> 
			</g>
		</g>
		<g class='galleryItem column2' onclick='galleryClick(evt)' transform='translate(240.5,675.5)'>
			<g id='scale' transform='scale(.8)'>
				<rect fill='#C8C8C8' width='98' height='98' transform='translate(-49,-49)'/>
				<image id="image" transform='translate(-49,-49)' width="98" height="98" xlink:href="" /> 
			</g>
		</g>
		<g class='galleryItem column3' onclick='galleryClick(evt)' transform='translate(360.5,675.5)'>
			<g id='scale' transform='scale(.8)'>
				<rect fill='#C8C8C8' width='98' height='98' transform='translate(-49,-49)'/>
				<image id="image" transform='translate(-49,-49)' width="98" height="98" xlink:href="" /> 
			</g>
		</g>
		<g class='galleryItem column4' onclick='galleryClick(evt)' transform='translate(480.5,675.5)'>
			<g id='scale' transform='scale(.8)'>
				<rect fill='#C8C8C8' width='98' height='98' transform='translate(-49,-49)'/>
				<image id="image" transform='translate(-49,-49)' width="98" height="98" xlink:href="" /> 
			</g>
		</g>
	</g>
</g>
<!-- Blog Rect -->
<g id="projectImage" transform="translate(300,300)">
	<g id="scale" transform="scale(1)">
		<rect x="-175" y="-175" width="575" height="350" fill="#000000"/>
	</g>
</g>	
<g id="blogBack" opacity="1">
	<rect x="70" y="320" width="460" height="200" fill="#EEEEEE" stroke="#CCCCCC" />
  	<foreignobject x="70" y="320" width="460" height="200"><body xmlns="http://www.w3.org/1999/xhtml">
  		<div class="welcomeBox">
  			<?php 
		  		include "fronttext.txt";
	  		?>
		  	</div>
		</body>	
	</foreignobject>
<!-- 	<g id="shadow">
		<clippath id="shadowClip">
			<rect id="blogBack" x="65" y="315" width="461" height="301" fill="#000000" />
		</clippath>
		<g clip-path= "url(#shadowClip)">		
			<rect id="shadow" x="73" y="318" width="460" height="300" fill="#DDDDDD" />
		</g> -->
	<!-- </g> -->
</g>
<!-- Menu Items -->
<g id="mDark" class="dark">
	<g id="slide">
		<path id="popoutText" traveldist="53.5" fill="#D4342A" opacity="0" d="M219.336,349.676v-9.346h25.137c2.714,0,5.713,0.117,8.994,0.354
			v-0.232c-2.578-0.488-4.434-0.928-5.566-1.318l-28.564-9.844v-7.734l28.271-10.02c0.762-0.274,2.714-0.713,5.859-1.318v-0.264
			c-4.141,0.253-7.774,0.381-10.898,0.381h-23.232v-8.523h42.012v13.855l-24.902,8.584c-1.992,0.686-3.994,1.184-6.006,1.494v0.176
			c2.324,0.527,4.346,1.084,6.063,1.67l24.844,8.584v13.508L219.336,349.676L219.336,349.676z"/>
		<g id="fullText" opacity="0">
			<path style="fill:#010101;" d="M219.519,364.833h4.004v-0.078c-1.367-0.638-2.458-1.563-3.271-2.782s-1.221-2.566-1.221-4.054
				c0-1.901,0.534-3.405,1.602-4.512c1.067-1.106,2.415-1.66,4.043-1.66c3.489,0,5.599,2.312,6.328,6.935l0.918,6.151
				c4.297,0,6.445-1.614,6.445-4.844c0-2.2-0.886-4.343-2.656-6.427h2.168c0.586,0.742,1.087,1.748,1.504,3.019
				s0.625,2.464,0.625,3.584c0,2.058-0.638,3.649-1.914,4.774c-1.276,1.127-3.132,1.688-5.566,1.688H219.52L219.519,364.833
				L219.519,364.833z M229.479,359.325c-0.3-2.097-0.785-3.567-1.455-4.414c-0.671-0.847-1.761-1.271-3.271-1.271
				c-1.185,0-2.162,0.395-2.93,1.183c-0.769,0.788-1.152,1.885-1.152,3.291c0,1.927,0.713,3.526,2.139,4.805
				c1.426,1.276,3.265,1.914,5.518,1.914h1.953L229.479,359.325z"/>
			<path style="fill:#010101;" d="M219.519,384.091l9.883-9.569v-0.078h-9.883v-1.797h29.609v1.797h-19.082v0.078l9.473,9.082v2.323
				l-9.688-9.491l-10.313,10.254L219.519,384.091L219.519,384.091z"/>
			<path style="fill:#010101;" d="M229.44,390.829c-2.748,0-4.896,0.635-6.445,1.903c-1.55,1.271-2.324,3.012-2.324,5.226
				c0,2.239,0.827,4.427,2.48,6.563h-1.914c-1.472-2.07-2.207-4.385-2.207-6.937c0-2.578,0.924-4.661,2.773-6.25
				c1.849-1.589,4.459-2.383,7.832-2.383c2.917,0,5.374,0.83,7.373,2.489c1.999,1.658,2.998,3.816,2.998,6.476
				c0,2.487-0.873,4.396-2.617,5.723c-1.745,1.328-4.128,1.992-7.148,1.992h-0.801V390.829L229.44,390.829z M231.081,403.759
				c2.305-0.078,4.095-0.632,5.371-1.66c1.276-1.025,1.914-2.445,1.914-4.258c0-1.875-0.628-3.428-1.885-4.657
				c-1.257-1.229-3.057-1.988-5.4-2.273V403.759L231.081,403.759z"/>
		</g>
	</g>
	<clipPath id="mDarkClip">
		<rect class="clipBoxRect" x="190" y="200" width="100" height="100"/>
	</clipPath>
	<g id="box" onclick="menuClick(evt)" style="clip-path:url(#mDarkClip);" class="startButton">
		<rect id="fill" x="191" y="201" fill="000000" width="98" height="98"/>
		<path id="border" style="fill:#B4B4B4;" d="M288,298h-96v-96h96V298 M290,300V200H190v100H290L290,300z"/>
		<path id="whiteText" traveldist="53.5" style="fill:#FFFFFF;" d="M286.175,270.664h-9.346v-25.137c0-2.714,0.117-5.713,0.353-8.994h-0.234
			c-0.488,2.578-0.928,4.434-1.318,5.566l-9.844,28.563h-7.734l-10.02-28.271c-0.274-0.762-0.713-2.714-1.318-5.859h-0.264
			c0.253,4.141,0.381,7.774,0.381,10.898v23.231h-8.524v-42.012h13.856l8.584,24.901c0.685,1.992,1.183,3.994,1.494,6.007h0.176
			c0.527-2.324,1.084-4.347,1.67-6.063l8.584-24.844h13.506L286.175,270.664L286.175,270.664z"/>
	</g>
</g>


<g id="dDark" class="dark">
	<g id="slide">
		<path id="popoutText" traveldist="42" fill="#A2328D" opacity="0" d="M339.336,301.807h42.012v14.883
			c0,14.924-6.823,22.385-20.479,22.385c-6.543,0-11.77-2.036-15.674-6.108c-3.906-4.071-5.859-9.497-5.859-16.272V301.807
			L339.336,301.807z M373.643,311.27h-26.631v4.688c0,4.103,1.23,7.319,3.691,9.653c2.461,2.332,5.811,3.5,10.049,3.5
			c4.003,0,7.153-1.156,9.448-3.473c2.295-2.313,3.439-5.562,3.439-9.74L373.643,311.27L373.643,311.27z"/>
		<g id="fullText" opacity="0">
			<path style="fill:#010101;" d="M350.064,342.311c-2.748,0-4.896,0.635-6.444,1.903c-1.55,1.271-2.324,3.011-2.324,5.226
				c0,2.238,0.827,4.429,2.479,6.563h-1.914c-1.473-2.069-2.207-4.382-2.207-6.935c0-2.577,0.925-4.66,2.771-6.25
				c1.852-1.59,4.459-2.382,7.832-2.382c2.917,0,5.374,0.83,7.373,2.489c1.999,1.66,2.998,3.818,2.998,6.476
				c0,2.486-0.873,4.396-2.617,5.725s-4.128,1.992-7.146,1.992h-0.802V342.311L350.064,342.311z M351.706,355.239
				c2.305-0.078,4.095-0.632,5.371-1.66c1.274-1.028,1.914-2.448,1.914-4.259c0-1.875-0.628-3.428-1.886-4.657
				s-3.059-1.989-5.399-2.274V355.239L351.706,355.239z"/>
			<path style="fill:#010101;" d="M341.021,361.04h2.168c-0.588,0.677-1.049,1.497-1.389,2.461c-0.339,0.964-0.508,1.797-0.508,2.5
				c0,3.138,1.282,4.707,3.848,4.707c0.887,0,1.644-0.345,2.269-1.035c0.625-0.688,1.271-1.81,1.934-3.358
				c0.833-1.914,1.696-3.26,2.589-4.031c0.894-0.774,1.978-1.162,3.252-1.162c1.627,0,2.941,0.622,3.944,1.863
				c1.002,1.242,1.504,2.775,1.504,4.602c0,1.721-0.352,3.189-1.055,4.414h-2.031c0.963-1.482,1.445-3.021,1.445-4.607
				c0-1.314-0.343-2.377-1.025-3.186c-0.682-0.809-1.571-1.211-2.666-1.211c-0.95,0-1.722,0.254-2.313,0.762
				c-0.596,0.51-1.273,1.629-2.041,3.359c-0.938,2.083-1.809,3.516-2.607,4.297c-0.8,0.779-1.865,1.172-3.191,1.172
				c-1.59,0-2.899-0.596-3.938-1.787c-1.036-1.189-1.553-2.835-1.553-4.932C339.654,363.938,340.111,362.329,341.021,361.04z"/>
			<path style="fill:#010101;" d="M340.145,377.604h20v1.797h-20V377.604z M365.184,378.48c0-0.393,0.146-0.734,0.432-1.035
				c0.285-0.301,0.648-0.448,1.094-0.448c0.43,0,0.778,0.153,1.045,0.459c0.268,0.306,0.4,0.646,0.4,1.024
				c0,0.401-0.13,0.76-0.394,1.063c-0.261,0.307-0.609,0.459-1.055,0.459c-0.417,0-0.774-0.146-1.074-0.447
				C365.332,379.255,365.184,378.898,365.184,378.48z"/>
			<path style="fill:#010101;" d="M341.628,401.802c-3.763,0-6.517-0.817-8.262-2.461c-1.745-1.641-2.617-4.19-2.617-7.655
				c0-1.928,0.508-3.912,1.522-5.957h1.875c-1.174,2.108-1.76,4.107-1.76,5.996c0,5.521,2.918,8.28,8.75,8.28h2.6v-0.078
				c-2.723-1.575-4.082-3.978-4.082-7.206c0-2.462,0.893-4.471,2.677-6.025c1.784-1.557,4.271-2.334,7.461-2.334
				s5.794,0.842,7.813,2.521c2.018,1.682,3.024,3.896,3.024,6.643c0,2.94-1.218,5.076-3.649,6.404v0.078h3.162v1.797
				L341.628,401.802L341.628,401.802z M352.468,400.005c1.771,0,3.302-0.596,4.591-1.787c1.289-1.188,1.936-2.743,1.936-4.657
				c0-2.199-0.827-3.973-2.48-5.313c-1.652-1.34-3.841-2.014-6.563-2.014c-2.734,0-4.86,0.615-6.377,1.848
				c-1.52,1.229-2.275,2.854-2.275,4.873c0,2.146,0.696,3.86,2.09,5.137c1.395,1.277,3.102,1.914,5.117,1.914L352.468,400.005
				L352.468,400.005z"/>
			<path style="fill:#010101;" d="M340.145,421.802h11.643c4.805,0,7.207-1.729,7.207-5.192c0-1.93-0.707-3.512-2.119-4.746
				c-1.413-1.237-3.161-1.855-5.244-1.855h-11.482v-1.797h20v1.797h-3.635v0.078c2.747,1.458,4.121,3.737,4.121,6.836
				c0,2.161-0.72,3.815-2.158,4.961c-1.438,1.146-3.49,1.719-6.16,1.719h-12.168v-1.799L340.145,421.802L340.145,421.802z"/>
		</g>
	</g>
	<clipPath id="dDarkClip">
		<rect class="clipBoxRect" x="310" y="200" width="100" height="100"/>
	</clipPath>
	<g id="box" onclick="menuClick(evt)" style="clip-path:url(#dDarkClip);" class="startButton"> 
		<rect id="fill" x="311" y="201" fill="000000" width="98" height="98"/>
		<path id="border" style="fill:#B4B4B4;" d="M408,298h-96v-96h96V298 M410,300V200H310v100H410L410,300z"/>
		<path id="whiteText" traveldist="42" style="fill:#FFFFFF;" d="M369.804,270.664v-42.012h14.883c14.926,0,22.387,6.826,22.387,20.479
			c0,6.543-2.036,11.768-6.108,15.674c-4.072,3.906-9.497,5.859-16.271,5.859H369.804L369.804,270.664z M379.267,236.357v26.631
			h4.688c4.102,0,7.319-1.23,9.653-3.691c2.333-2.461,3.501-5.811,3.501-10.049c0-4.003-1.157-7.153-3.476-9.448
			c-2.313-2.295-5.562-3.442-9.739-3.442L379.267,236.357L379.267,236.357z"/>
	</g>
</g>

 <g id="sDark" class="dark">
	<g id="slide">
		<path id="popoutText" traveldist="34"  fill="#FFD431" opacity="0" d="M460.947,302.371h9.375c-1.426,1.699-2.495,3.545-3.208,5.537
			c-0.714,1.992-1.069,4.004-1.069,6.035c0,1.189,0.107,2.229,0.322,3.119s0.513,1.631,0.894,2.228
			c0.382,0.596,0.83,1.04,1.352,1.333c0.517,0.293,1.075,0.439,1.685,0.439c0.82,0,1.554-0.234,2.197-0.703
			c0.644-0.471,1.239-1.109,1.786-1.92c0.548-0.812,1.071-1.771,1.582-2.887c0.509-1.113,1.022-2.313,1.554-3.604
			c1.366-3.281,3.037-5.729,5.01-7.34c1.977-1.61,4.354-2.416,7.147-2.416c2.188,0,4.064,0.438,5.641,1.316
			c1.572,0.879,2.866,2.075,3.882,3.59c1.018,1.514,1.766,3.268,2.241,5.26c0.479,1.99,0.718,4.102,0.718,6.326
			c0,2.188-0.132,4.127-0.396,5.815c-0.267,1.688-0.67,3.247-1.218,4.673h-8.762c0.488-0.703,0.918-1.47,1.289-2.3
			c0.371-0.831,0.679-1.685,0.924-2.563c0.243-0.879,0.427-1.754,0.541-2.621c0.117-0.869,0.179-1.693,0.179-2.477
			c0-1.074-0.104-2.051-0.311-2.93c-0.205-0.879-0.493-1.621-0.864-2.229c-0.369-0.604-0.813-1.072-1.331-1.404
			c-0.52-0.332-1.101-0.498-1.742-0.498c-0.702,0-1.332,0.186-1.893,0.557c-0.557,0.371-1.084,0.898-1.582,1.582
			c-0.497,0.684-0.982,1.514-1.465,2.49c-0.479,0.976-0.972,2.08-1.479,3.311c-0.702,1.682-1.449,3.188-2.24,4.526
			c-0.791,1.337-1.688,2.485-2.683,3.442c-0.995,0.957-2.137,1.688-3.411,2.195c-1.279,0.508-2.771,0.764-4.472,0.764
			c-2.344,0-4.312-0.444-5.899-1.334c-1.597-0.891-2.884-2.096-3.867-3.617c-0.986-1.523-1.694-3.297-2.124-5.317
			c-0.431-2.021-0.646-4.155-0.646-6.401c0-2.305,0.195-4.496,0.587-6.576C459.581,305.695,460.166,303.895,460.947,302.371z"/>
		<g id="fullText" style="opacity:0;">
			<path style="fill:#010101;" d="M459.773,347.163c-0.911-1.483-1.367-3.255-1.367-5.313c0-2.722,0.934-4.914,2.803-6.582
				c1.868-1.666,4.313-2.5,7.334-2.5c3.177,0,5.777,0.938,7.803,2.813c2.024,1.875,3.037,4.284,3.037,7.228
				c0,1.522-0.313,3-0.938,4.436h-2.031c0.885-1.436,1.328-3.001,1.328-4.707c0-2.344-0.844-4.245-2.529-5.703
				c-1.687-1.458-3.871-2.188-6.553-2.188c-2.592,0-4.675,0.666-6.25,2.002c-1.576,1.334-2.363,3.096-2.363,5.284
				c0,2.004,0.533,3.75,1.604,5.232L459.773,347.163L459.773,347.163z"/>
			<path style="fill:#010101;" d="M477.02,361.4c0.433-0.601,0.646-1.303,0.646-2.108c0-1.575-0.814-2.897-2.441-3.965
				c-1.628-1.067-3.938-1.603-6.934-1.603h-9.396v-1.76h20v1.76h-4.434v0.076c1.523,0.456,2.708,1.182,3.555,2.17
				c0.849,0.987,1.271,2.137,1.271,3.438c0,0.742-0.117,1.406-0.354,1.992H477.02L477.02,361.4z"/>
			<path style="fill:#010101;" d="M458.895,365.171h20v1.797h-20V365.171z M483.934,366.05c0-0.391,0.146-0.733,0.433-1.034
				c0.286-0.301,0.647-0.449,1.094-0.449c0.43,0,0.777,0.152,1.045,0.459c0.269,0.308,0.4,0.646,0.4,1.024
				c0,0.403-0.132,0.759-0.394,1.063c-0.261,0.307-0.609,0.459-1.055,0.459c-0.417,0-0.775-0.148-1.074-0.448
				C484.083,366.824,483.934,366.467,483.934,366.05z"/>
			<path style="fill:#010101;" d="M462.449,375.249v-0.078h-12.754v-1.797h29.196v1.797h-4.118v0.078
				c1.471,0.716,2.604,1.741,3.405,3.076c0.804,1.335,1.201,2.803,1.201,4.403c0,2.539-0.876,4.521-2.627,5.945
				c-1.752,1.428-4.131,2.141-7.139,2.141c-3.35,0-6.054-0.816-8.115-2.451c-2.064-1.633-3.096-3.791-3.096-6.475
				C458.406,378.895,459.754,376.682,462.449,375.249z M469.891,375.171h-2.52c-2.006,0-3.729,0.632-5.166,1.896
				c-1.439,1.265-2.158,2.925-2.158,4.979c0,2.044,0.875,3.704,2.627,4.979c1.751,1.274,4.053,1.914,6.904,1.914
				c2.5,0,4.485-0.586,5.957-1.758c1.471-1.174,2.207-2.733,2.207-4.688c0-2.331-0.781-4.134-2.344-5.41
				C473.835,375.809,472,375.171,469.891,375.171z"/>
			<path style="fill:#010101;" d="M459.168,403.688c-0.442-0.938-0.664-1.814-0.664-2.638c0-2.956,1.771-4.434,5.313-4.434h13.438
				v-3.595h1.641v3.595h5.195c0.104,0.286,0.208,0.586,0.313,0.896c0.091,0.313,0.188,0.612,0.293,0.898h-5.804v5.271h-1.641v-5.271
				H464.05c-1.381,0-2.38,0.218-2.998,0.654c-0.619,0.437-0.928,1.175-0.928,2.217c0,0.742,0.24,1.543,0.723,2.4h-1.681
				L459.168,403.688L459.168,403.688z"/>
		</g>
	</g>
	<clipPath id="sDarkClip">
		<rect class="clipBoxRect" x="430" y="200" width="100" height="100"/>
	</clipPath>
	<g id="box" onclick="menuClick(evt)" style="clip-path:url(#sDarkClip);" class="startButton">
		<rect id="fill" x="431" y="201" fill="000000" width="98" height="98"/>
		<path id="border" style="fill:#B4B4B4;" d="M528,298h-96v-96h96V298 M530,300V200H430v100H530L530,300z"/>
		<path id="whiteText" traveldist="34" style="fill:#FFFFFF;" d="M498.371,269.053v-9.375c1.699,1.426,3.545,2.495,5.537,3.209
			c1.992,0.713,4.004,1.068,6.035,1.068c1.188,0,2.229-0.107,3.116-0.322c0.893-0.215,1.634-0.513,2.229-0.894
			c0.596-0.382,1.04-0.83,1.333-1.349c0.293-0.518,0.438-1.078,0.438-1.686c0-0.82-0.231-1.555-0.7-2.197
			c-0.473-0.644-1.109-1.238-1.92-1.785c-0.813-0.549-1.771-1.074-2.889-1.582c-1.11-0.51-2.313-1.025-3.604-1.555
			c-3.281-1.365-5.729-3.037-7.339-5.01c-1.611-1.974-2.417-4.354-2.417-7.147c0-2.188,0.438-4.067,1.314-5.641
			c0.879-1.572,2.075-2.866,3.589-3.882c1.517-1.015,3.271-1.763,5.263-2.241c1.988-0.479,4.102-0.718,6.324-0.718
			c2.188,0,4.127,0.132,5.815,0.396c1.688,0.264,3.247,0.67,4.673,1.217v8.76c-0.703-0.488-1.47-0.918-2.3-1.289
			c-0.831-0.371-1.687-0.678-2.563-0.924c-0.879-0.243-1.754-0.424-2.619-0.541c-0.868-0.117-1.693-0.176-2.479-0.176
			c-1.074,0-2.051,0.103-2.93,0.308c-0.879,0.205-1.621,0.493-2.229,0.864c-0.604,0.371-1.072,0.815-1.403,1.332
			c-0.331,0.519-0.497,1.1-0.497,1.744c0,0.702,0.186,1.332,0.557,1.89c0.371,0.557,0.897,1.084,1.582,1.582
			c0.684,0.497,1.514,0.985,2.49,1.465c0.976,0.48,2.08,0.972,3.311,1.479c1.683,0.702,3.188,1.449,4.526,2.24
			c1.337,0.791,2.483,1.686,3.439,2.683c0.957,0.996,1.688,2.135,2.196,3.412c0.508,1.278,0.764,2.77,0.764,4.469
			c0,2.344-0.442,4.312-1.335,5.902c-0.89,1.594-2.095,2.883-3.616,3.866c-1.521,0.986-3.296,1.694-5.315,2.124
			c-2.021,0.432-4.155,0.646-6.401,0.646c-2.305,0-4.495-0.195-6.575-0.586C501.695,270.419,499.895,269.834,498.371,269.053z"/>
	</g>
</g>

<!-- "A" menu item -->
<g id="aBox" class="dark">
	<g>
		<defs>
			<rect id="SVGID_7_" x="70" y="15" width="100" height="100"/>
		</defs>
		<clipPath id="SVGID_8_">
			<use xlink:href="#SVGID_7_"  style="overflow:visible;"/>
		</clipPath>
		<g id="box" onclick="menuClick(evt)" style="clip-path:url(#SVGID_8_);" class="startButton">
			<rect id="fill" x="71" y="16" fill="#84AC4B" width="98" height="98"/>
			
		</g>
	</g>
	<g>
		<defs>
			<rect id="SVGID_9_" x="70" y="15" width="100" height="100"/>
		</defs>
		<clipPath id="SVGID_10_">
			<use xlink:href="#SVGID_9_"  style="overflow:visible;"/>
		</clipPath>
		<g id="whiteText" style="clip-path: url(#SVGID_10_);">
			<path fill="#FFFFFF" d="M164.367,85h-10.313l-2.988-9.346h-14.941L133.166,85h-10.254l15.293-42.012h11.221L164.367,85z
				 M148.898,68.389l-4.512-14.121c-0.333-1.055-0.567-2.314-0.703-3.779h-0.234c-0.098,1.229-0.342,2.451-0.732,3.662
				l-4.57,14.238H148.898z"/>
		</g>
	</g>
	<g id="aFullText">
		<path d="M175,85V42.511h10.637c7.052,0,12.415,1.759,16.089,5.274c3.674,3.517,5.511,8.643,5.511,15.378
			c0,6.479-1.97,11.738-5.911,15.777c-3.941,4.04-9.378,6.06-16.311,6.06H175z M177.934,45.207v37.126h6.667
			c6.301,0,11.141-1.634,14.519-4.903s5.067-7.985,5.067-14.148c0-12.049-6.331-18.074-18.993-18.074L177.934,45.207L177.934,45.207z
			"/>
		<path d="M237.755,85l-18.104-20.326c-0.336-0.375-0.573-0.701-0.711-0.978h-0.119V85h-2.934V42.511h2.934v20.03h0.119
			c0.237-0.415,0.493-0.761,0.77-1.037l17.186-18.993h3.822l-18.637,20.593L241.874,85H237.755z"/>
		<path d="M275.533,85l-4.859-13.215h-18.429L247.385,85h-3.229l16.03-42.489h2.785L278.822,85H275.533z M262.497,49.444
			c-0.218-0.593-0.396-1.175-0.533-1.748c-0.139-0.493-0.287-0.987-0.444-1.481h-0.12c-0.336,1.304-0.662,2.36-0.978,3.17
			l-7.141,19.704h16.385L262.497,49.444z"/>
		<path d="M288.955,67.963V85h-2.933V42.511h10.252c4.365,0,7.703,1.013,10.015,3.037c2.311,2.025,3.467,4.983,3.467,8.874
			c0,3.951-1.289,7.195-3.867,9.733c-2.576,2.539-6.188,3.808-10.829,3.808H288.955z M288.955,45.207v20.06H295
			c3.832,0,6.745-0.913,8.74-2.74c1.994-1.827,2.993-4.41,2.993-7.749c0-6.38-3.665-9.57-10.993-9.57L288.955,45.207L288.955,45.207z
			"/>
		<path d="M319.03,85V42.511h2.933v39.822H339V85H319.03z"/>
		<path d="M377.105,85l-4.859-13.215h-18.43L348.957,85h-3.229l16.029-42.489h2.785L380.395,85H377.105z M364.068,49.444
			c-0.22-0.593-0.396-1.175-0.533-1.748c-0.139-0.493-0.287-0.987-0.444-1.481h-0.119c-0.336,1.304-0.662,2.36-0.978,3.17
			l-7.141,19.704h16.385L364.068,49.444z"/>
		<path d="M417.639,85l-25.304-34.341c-0.514-0.691-0.968-1.383-1.362-2.074l-0.386-0.593h-0.118
			c0.039,0.515,0.061,1.137,0.061,1.867V85h-2.935V42.511h2.252l25.126,34.045c0.555,0.751,1.155,1.659,1.809,2.726h0.146
			c-0.099-1.382-0.146-2.567-0.146-3.556V42.511h2.934V85H417.639z"/>
	</g>
</g>
</svg>
