<!-- Generator: Adobe Illustrator 16.0.0, SVG Export Plug-In . SVG Version: 6.00 Build 0)  -->
<svg version="1.1" id="leftside" xmlns="http://www.w3.org/2000/svg" xmlns:xlink="http://www.w3.org/1999/xlink" x="0px" y="0px"
	 width="894.947px" height="2265.195px" viewBox="58.705 134.734 894.947 2265.195"
	 enable-background="new 58.705 134.734 894.947 2265.195" xml:space="preserve" preserveAspectRatio="xMinYMin meet">
<g class="circles">
	<circle fill="none" cx="186.037" cy="2426.817" r="325.669"/>
<circle fill="none" cx="664.023" cy="461.313" r="260.166"/>
<circle fill="none" cx="545.233" cy="597.649" r="150.399"/>
<circle fill="none" cx="681.398" cy="1229.583" r="138.452"/>
<circle fill="none" cx="704.431" cy="955.77" r="128.025"/>
<circle fill="none" cx="802.979" cy="1801.639" r="102.032"/>
<circle fill="none" cx="280.562" cy="912.201" r="100.795"/>
<circle fill="none" cx="530.553" cy="733.043" r="97.033"/>
<circle fill="none" cx="626.279" cy="2104.828" r="96.243"/>
<circle fill="none" cx="687.346" cy="907.965" r="91.956"/>
<circle fill="none" cx="869.122" cy="1421.556" r="84.53"/>
<circle fill="none" cx="614.891" cy="1174.625" r="79.145"/>
<circle fill="none" cx="551.883" cy="490.892" r="72.262"/>
<circle fill="none" cx="566.372" cy="781.5" r="69.618"/>
<circle fill="none" cx="683.403" cy="357.637" r="68.519"/>
<circle fill="none" cx="684.781" cy="2207.158" r="60.86"/>
<circle fill="none" cx="628.67" cy="2198.58" r="59.067"/>
<circle fill="none" cx="341.566" cy="1617.456" r="54.374"/>
<circle fill="none" cx="631.735" cy="1415.222" r="50.143"/>
<circle fill="none" cx="522.443" cy="873.364" r="47.049"/>
<circle fill="none" cx="735.976" cy="1257.878" r="46.627"/>
<circle fill="none" cx="509.792" cy="1431.296" r="44.792"/>
<circle fill="none" cx="564" cy="2105.707" r="44.001"/>
<circle fill="none" cx="512.696" cy="692.274" r="42.782"/>
<circle fill="none" cx="431.437" cy="2267.264" r="42.04"/>
<circle fill="none" cx="304.65" cy="493.913" r="40.59"/>
<circle fill="none" cx="270.909" cy="1451.429" r="40.439"/>
<circle fill="none" cx="500.842" cy="821.18" r="40.142"/>
<circle fill="none" cx="550.479" cy="2046.503" r="39.925"/>
<circle fill="none" cx="514.732" cy="2241.129" r="39.841"/>
<circle fill="none" cx="469.914" cy="1042.392" r="39.626"/>
<circle fill="none" cx="534.605" cy="593.765" r="38.811"/>
<circle fill="none" cx="413.258" cy="852.261" r="38.625"/>
<circle fill="none" cx="479.169" cy="1325.054" r="38.189"/>
<circle fill="none" cx="433.698" cy="594.406" r="37.858"/>
<circle fill="none" cx="606.909" cy="1086.577" r="37.822"/>
<circle fill="none" cx="304.708" cy="1442.957" r="37.793"/>
<circle fill="none" cx="494.488" cy="1067.585" r="37.666"/>
<circle fill="none" cx="151.84" cy="1446.623" r="37.471"/>
<circle fill="none" cx="582.293" cy="2070.502" r="37.108"/>
<circle fill="none" cx="346.252" cy="524.63" r="37.016"/>
<circle fill="none" cx="309.773" cy="528.796" r="36.66"/>
<circle fill="none" cx="539.292" cy="747.352" r="36.464"/>
<circle fill="none" cx="552.312" cy="2259.733" r="36.299"/>
<circle fill="none" cx="339.975" cy="488.636" r="35.929"/>
<circle fill="none" cx="601.547" cy="2205.811" r="35.745"/>
<circle fill="none" cx="463.911" cy="574.589" r="34.904"/>
<circle fill="none" cx="442.199" cy="1426.518" r="34.588"/>
<circle fill="none" cx="545.722" cy="848.528" r="34.536"/>
<circle fill="none" cx="431.478" cy="631.414" r="34.438"/>
<circle fill="none" cx="552.528" cy="890.827" r="33.942"/>
<circle fill="none" cx="471.994" cy="1425.942" r="33.008"/>
<circle fill="none" cx="346.904" cy="1652.845" r="33.003"/>
<circle fill="none" cx="661.5" cy="2101.469" r="32.808"/>
<circle fill="none" cx="761.291" cy="1938.57" r="32.745"/>
<circle fill="none" cx="470.924" cy="704.441" r="32.604"/>
<circle fill="none" cx="631.35" cy="1723.082" r="32.28"/>
<circle fill="none" cx="268.254" cy="1061.951" r="32.265"/>
<circle fill="none" cx="604.329" cy="1694.755" r="31.917"/>
<circle fill="none" cx="306.737" cy="1848.861" r="31.609"/>
<circle fill="none" cx="685.841" cy="2151.903" r="31.584"/>
<circle fill="none" cx="598.761" cy="1397.323" r="31.391"/>
<circle fill="none" cx="526.91" cy="2302.87" r="31.357"/>
<circle fill="none" cx="396.334" cy="646.609" r="31.229"/>
<circle fill="none" cx="112.047" cy="1885.352" r="31.211"/>
<circle fill="none" cx="458.59" cy="1588.594" r="31.155"/>
<circle fill="none" cx="539.339" cy="573.422" r="31.002"/>
<circle fill="none" cx="271.833" cy="1831.768" r="30.322"/>
<circle fill="none" cx="714.996" cy="2016.376" r="30.143"/>
<circle fill="none" cx="374.336" cy="1602.084" r="29.966"/>
<circle fill="none" cx="400.897" cy="169.22" r="29.782"/>
<circle fill="none" cx="843.907" cy="1690.121" r="29.666"/>
<circle fill="none" cx="431.852" cy="1234.021" r="29.607"/>
<circle fill="none" cx="376.455" cy="1195.259" r="29.594"/>
<circle fill="none" cx="509.242" cy="2337.903" r="29.553"/>
<circle fill="none" cx="391.023" cy="1231.919" r="29.539"/>
<circle fill="none" cx="500.048" cy="588.823" r="29.506"/>
<circle fill="none" cx="493.057" cy="251.872" r="29.475"/>
<circle fill="none" cx="503.809" cy="726.082" r="29.241"/>
<circle fill="none" cx="273.515" cy="1376.786" r="28.941"/>
<circle fill="none" cx="602.596" cy="900.788" r="28.755"/>
<circle fill="none" cx="360.883" cy="169.899" r="28.649"/>
<circle fill="none" cx="237.388" cy="128.937" r="28.385"/>
<circle fill="none" cx="94.74" cy="1031.713" r="28.369"/>
<circle fill="none" cx="471.16" cy="1253.264" r="28.339"/>
<circle fill="none" cx="308.428" cy="881.625" r="27.979"/>
<circle fill="none" cx="537.625" cy="533.905" r="27.736"/>
<circle fill="none" cx="454.868" cy="274.407" r="27.584"/>
<circle fill="none" cx="240.422" cy="1009.702" r="27.536"/>
<circle fill="none" cx="663.768" cy="1817.883" r="27.335"/>
<circle fill="none" cx="194.079" cy="1460.572" r="27.334"/>
<circle fill="none" cx="446.549" cy="1360.515" r="27.221"/>
<circle fill="none" cx="434.166" cy="1054.061" r="27.115"/>
<circle fill="none" cx="373.913" cy="838.223" r="27.051"/>
<circle fill="none" cx="662.378" cy="1390.885" r="26.926"/>
<circle fill="none" cx="371.546" cy="615.119" r="26.306"/>
<circle fill="none" cx="323.04" cy="652.194" r="26.113"/>
<circle fill="none" cx="444.491" cy="996.769" r="26.072"/>
<circle fill="none" cx="490.397" cy="2227.766" r="25.998"/>
<circle fill="none" cx="408.187" cy="1384.271" r="25.967"/>
<circle fill="none" cx="663.019" cy="2058.105" r="25.914"/>
<circle fill="none" cx="681.183" cy="1002.413" r="25.863"/>
<circle fill="none" cx="785.556" cy="1630.208" r="25.771"/>
<circle fill="none" cx="575.751" cy="1754.548" r="25.727"/>
<circle fill="none" cx="627.23" cy="1369.038" r="25.708"/>
<circle fill="none" cx="274.753" cy="149.244" r="25.674"/>
<circle fill="none" cx="616.927" cy="1761.105" r="25.559"/>
<circle fill="none" cx="99.405" cy="1924.75" r="25.513"/>
<circle fill="none" cx="288.3" cy="1794.727" r="25.47"/>
<circle fill="none" cx="325.578" cy="1813.314" r="25.231"/>
<circle fill="none" cx="159.245" cy="935.445" r="25.007"/>
<circle fill="none" cx="143.264" cy="2168.99" r="24.981"/>
<circle fill="none" cx="328.023" cy="606.697" r="24.97"/>
<circle fill="none" cx="233.138" cy="1462.995" r="24.823"/>
<circle fill="none" cx="179.129" cy="1580.043" r="24.793"/>
<circle fill="none" cx="140.954" cy="1857.278" r="24.697"/>
<circle fill="none" cx="567.653" cy="1179.453" r="24.643"/>
<circle fill="none" cx="414.802" cy="514.334" r="24.586"/>
<circle fill="none" cx="383.631" cy="481.342" r="24.541"/>
<circle fill="none" cx="304.29" cy="1217.463" r="24.501"/>
<circle fill="none" cx="385.39" cy="1641.509" r="24.483"/>
<circle fill="none" cx="614.876" cy="2132.908" r="24.477"/>
<circle fill="none" cx="628.757" cy="855.888" r="24.357"/>
<circle fill="none" cx="408.135" cy="1168.906" r="24.205"/>
<circle fill="none" cx="438.153" cy="1095.298" r="24.183"/>
<circle fill="none" cx="796.172" cy="1766.101" r="24.145"/>
<circle fill="none" cx="117.334" cy="937.073" r="24.123"/>
<circle fill="none" cx="236.593" cy="905.327" r="24.079"/>
<circle fill="none" cx="119.62" cy="1821.102" r="24.078"/>
<circle fill="none" cx="127.774" cy="1105.274" r="23.994"/>
<circle fill="none" cx="700.064" cy="1795.186" r="23.867"/>
<circle fill="none" cx="778.806" cy="1831.433" r="23.861"/>
<circle fill="none" cx="173.662" cy="449.383" r="23.839"/>
<circle fill="none" cx="115.43" cy="1259.472" r="23.764"/>
<circle fill="none" cx="492.749" cy="1563.98" r="23.717"/>
<circle fill="none" cx="396.827" cy="581.833" r="23.332"/>
<circle fill="none" cx="476.437" cy="1389.423" r="23.325"/>
<circle fill="none" cx="381.821" cy="541.175" r="23.307"/>
<circle fill="none" cx="431.329" cy="204.293" r="23.178"/>
<circle fill="none" cx="773.725" cy="1272.03" r="23.132"/>
<circle fill="none" cx="155.26" cy="1138.971" r="23.082"/>
<circle fill="none" cx="242.129" cy="1464.541" r="23.043"/>
<circle fill="none" cx="399.566" cy="983.615" r="22.866"/>
<circle fill="none" cx="462.161" cy="1530.521" r="22.832"/>
<circle fill="none" cx="158.212" cy="1269.193" r="22.729"/>
<circle fill="none" cx="110.343" cy="2196.372" r="22.665"/>
<circle fill="none" cx="232.022" cy="1043.846" r="22.623"/>
<circle fill="none" cx="588.635" cy="1485.979" r="22.491"/>
<circle fill="none" cx="397.312" cy="1425.533" r="22.461"/>
<circle fill="none" cx="111.927" cy="1328.326" r="22.279"/>
<circle fill="none" cx="143.187" cy="2224.797" r="22.249"/>
<circle fill="none" cx="508.887" cy="1232.101" r="22.204"/>
<circle fill="none" cx="134.049" cy="465.704" r="22.141"/>
<circle fill="none" cx="442.625" cy="1194.122" r="22.074"/>
<circle fill="none" cx="183.422" cy="1048.647" r="21.924"/>
<circle fill="none" cx="416.736" cy="1581.576" r="21.604"/>
<circle fill="none" cx="758" cy="1723.369" r="21.587"/>
<circle fill="none" cx="198.258" cy="1711.348" r="21.394"/>
<circle fill="none" cx="310.836" cy="778.607" r="21.277"/>
<circle fill="none" cx="543.485" cy="786.139" r="21.2"/>
<circle fill="none" cx="548.439" cy="806.993" r="21.187"/>
<circle fill="none" cx="267.947" cy="701.807" r="21.139"/>
<circle fill="none" cx="539.779" cy="663.479" r="21.084"/>
<circle fill="none" cx="454.253" cy="534.149" r="21.026"/>
<circle fill="none" cx="531.359" cy="633.442" r="21.007"/>
<circle fill="none" cx="121.425" cy="507.585" r="20.979"/>
<circle fill="none" cx="256.998" cy="1938.906" r="20.642"/>
<circle fill="none" cx="502.801" cy="2267.861" r="20.635"/>
<circle fill="none" cx="223.016" cy="262.263" r="20.622"/>
<circle fill="none" cx="541.983" cy="707.223" r="20.36"/>
<circle fill="none" cx="343.645" cy="691.34" r="20.36"/>
<circle fill="none" cx="496.74" cy="767.5" r="20.333"/>
<circle fill="none" cx="175.754" cy="406.279" r="20.234"/>
<circle fill="none" cx="767.576" cy="1674.035" r="20.177"/>
<circle fill="none" cx="487.02" cy="1002.543" r="19.947"/>
<circle fill="none" cx="851.448" cy="1474.549" r="19.898"/>
<circle fill="none" cx="197.532" cy="147.987" r="19.885"/>
<circle fill="none" cx="251.535" cy="1983.193" r="19.846"/>
<circle fill="none" cx="464.015" cy="2290.828" r="19.824"/>
<circle fill="none" cx="321.774" cy="1982.863" r="19.683"/>
<circle fill="none" cx="152.546" cy="1708.404" r="19.653"/>
<circle fill="none" cx="260.502" cy="189.652" r="19.639"/>
<circle fill="none" cx="617.491" cy="2089.766" r="19.617"/>
<circle fill="none" cx="726.221" cy="1250.114" r="19.604"/>
<circle fill="none" cx="309.706" cy="1042.583" r="19.535"/>
<circle fill="none" cx="286.477" cy="2010.492" r="19.416"/>
<circle fill="none" cx="544.448" cy="829.906" r="19.41"/>
<circle fill="none" cx="215.783" cy="754.77" r="19.318"/>
<circle fill="none" cx="666.475" cy="2064.012" r="19.268"/>
<circle fill="none" cx="302.983" cy="571.534" r="19.199"/>
<circle fill="none" cx="579.38" cy="1821.379" r="19.152"/>
<circle fill="none" cx="615.253" cy="2053.306" r="18.939"/>
<circle fill="none" cx="313.552" cy="1259.774" r="18.939"/>
<circle fill="none" cx="480.047" cy="310.495" r="18.898"/>
<circle fill="none" cx="572.737" cy="975.339" r="18.833"/>
<circle fill="none" cx="645.35" cy="912.157" r="18.739"/>
<circle fill="none" cx="346.993" cy="1005.854" r="18.709"/>
<circle fill="none" cx="358.37" cy="821.209" r="18.304"/>
<circle fill="none" cx="629.138" cy="423.284" r="18.196"/>
<circle fill="none" cx="649.823" cy="1865.074" r="18.174"/>
<circle fill="none" cx="263.257" cy="410.255" r="17.816"/>
<circle fill="none" cx="720.053" cy="1753.205" r="17.776"/>
<circle fill="none" cx="621.205" cy="1804.488" r="17.772"/>
<circle fill="none" cx="549.066" cy="1994.256" r="17.404"/>
<circle fill="none" cx="650.944" cy="2223.859" r="17.19"/>
<circle fill="none" cx="487.941" cy="1193.036" r="17.153"/>
<circle fill="none" cx="688.695" cy="1222.51" r="17.093"/>
<circle fill="none" cx="471.589" cy="1487.204" r="16.983"/>
<circle fill="none" cx="413.981" cy="2273.904" r="16.917"/>
<circle fill="none" cx="425.247" cy="1930.016" r="16.893"/>
<circle fill="none" cx="215.414" cy="189.362" r="16.828"/>
<circle fill="none" cx="219.652" cy="391.486" r="16.789"/>
<circle fill="none" cx="279.959" cy="342.55" r="16.732"/>
<circle fill="none" cx="221.681" cy="1751.586" r="16.562"/>
<circle fill="none" cx="783.389" cy="1900.846" r="16.552"/>
<circle fill="none" cx="451.377" cy="852.541" r="16.542"/>
<circle fill="none" cx="720.613" cy="1605.703" r="16.378"/>
<circle fill="none" cx="722.529" cy="1834.196" r="16.369"/>
<circle fill="none" cx="717.154" cy="1521.975" r="16.187"/>
<circle fill="none" cx="474.936" cy="212.279" r="16.179"/>
<circle fill="none" cx="591.712" cy="757.591" r="16.143"/>
<circle fill="none" cx="221.978" cy="1554.747" r="16.123"/>
<circle fill="none" cx="750.878" cy="1427.284" r="16.112"/>
<circle fill="none" cx="535.507" cy="1058.358" r="16.035"/>
<circle fill="none" cx="104.458" cy="1186.986" r="15.953"/>
<circle fill="none" cx="137.708" cy="998.975" r="15.947"/>
<circle fill="none" cx="267.546" cy="1755.98" r="15.895"/>
<circle fill="none" cx="311.392" cy="722.937" r="15.875"/>
<circle fill="none" cx="223.121" cy="710.007" r="15.801"/>
<circle fill="none" cx="157.002" cy="535.338" r="15.801"/>
<circle fill="none" cx="656.699" cy="1224.908" r="15.797"/>
<circle fill="none" cx="405.191" cy="1124.758" r="15.78"/>
<circle fill="none" cx="727.218" cy="1652.496" r="15.516"/>
<circle fill="none" cx="454.921" cy="974.131" r="15.503"/>
<circle fill="none" cx="364.572" cy="1101.718" r="15.491"/>
<circle fill="none" cx="229.016" cy="1413.053" r="15.404"/>
<circle fill="none" cx="509.296" cy="2292.604" r="15.379"/>
<circle fill="none" cx="582.252" cy="985.646" r="15.329"/>
<circle fill="none" cx="342.141" cy="211.05" r="15.239"/>
<circle fill="none" cx="462.84" cy="661.609" r="15.205"/>
<circle fill="none" cx="343.417" cy="2182.082" r="15.153"/>
<circle fill="none" cx="189.5" cy="227.63" r="15.119"/>
<circle fill="none" cx="347.654" cy="981.068" r="15.021"/>
<circle fill="none" cx="243.682" cy="1690.211" r="14.975"/>
<circle fill="none" cx="507.092" cy="2218.939" r="14.932"/>
<circle fill="none" cx="518.267" cy="1370.478" r="14.787"/>
<circle fill="none" cx="574.251" cy="2151.291" r="14.706"/>
<circle fill="none" cx="155.583" cy="1341.1" r="14.686"/>
<circle fill="none" cx="151.45" cy="1185.345" r="14.662"/>
<circle fill="none" cx="191.999" cy="901.15" r="14.659"/>
<circle fill="none" cx="131.858" cy="393.966" r="14.567"/>
<circle fill="none" cx="564.262" cy="1711.79" r="14.556"/>
<circle fill="none" cx="351.225" cy="973.477" r="14.499"/>
<circle fill="none" cx="528.898" cy="2083.805" r="14.481"/>
<circle fill="none" cx="488.902" cy="2130.604" r="14.448"/>
<circle fill="none" cx="178.352" cy="975.609" r="14.425"/>
<circle fill="none" cx="187.949" cy="1385.961" r="14.261"/>
<circle fill="none" cx="442.331" cy="967.39" r="14.216"/>
<circle fill="none" cx="415.534" cy="1536.392" r="14.203"/>
<circle fill="none" cx="269.423" cy="264.691" r="14.071"/>
<circle fill="none" cx="454.668" cy="432.349" r="14.07"/>
<circle fill="none" cx="216.2" cy="1918.6" r="14.055"/>
<circle fill="none" cx="188.376" cy="1307.111" r="14.051"/>
<circle fill="none" cx="389.06" cy="2331.719" r="14.028"/>
<circle fill="none" cx="569.714" cy="2284.755" r="14.023"/>
<circle fill="none" cx="451.107" cy="767.045" r="13.951"/>
<circle fill="none" cx="403.16" cy="1006.882" r="13.948"/>
<circle fill="none" cx="265.551" cy="2234.297" r="13.881"/>
<circle fill="none" cx="519.635" cy="1696.183" r="13.869"/>
<circle fill="none" cx="297.749" cy="1606.661" r="13.86"/>
<circle fill="none" cx="265.922" cy="871.356" r="13.819"/>
<circle fill="none" cx="536.981" cy="792.114" r="13.799"/>
<circle fill="none" cx="742.017" cy="149.604" r="13.711"/>
<circle fill="none" cx="312.39" cy="2228.02" r="13.71"/>
<circle fill="none" cx="312.11" cy="2137.34" r="13.691"/>
<circle fill="none" cx="188.667" cy="1785.846" r="13.605"/>
<circle fill="none" cx="469.165" cy="1630.357" r="13.527"/>
<circle fill="none" cx="236.725" cy="831.306" r="13.507"/>
<circle fill="none" cx="355.752" cy="1054.415" r="13.423"/>
<circle fill="none" cx="115.745" cy="1739.115" r="13.414"/>
<circle fill="none" cx="397.135" cy="1013.867" r="13.287"/>
<circle fill="none" cx="320.412" cy="145.296" r="13.234"/>
<circle fill="none" cx="118.31" cy="1038.162" r="13.219"/>
<circle fill="none" cx="268.174" cy="463.55" r="13.196"/>
<circle fill="none" cx="626.277" cy="355.484" r="13.116"/>
<circle fill="none" cx="302.375" cy="383.536" r="13.046"/>
<circle fill="none" cx="491.296" cy="462.362" r="13.016"/>
<circle fill="none" cx="647.43" cy="1971.269" r="13.013"/>
<circle fill="none" cx="481.961" cy="1107.989" r="12.794"/>
<circle fill="none" cx="535.108" cy="536.766" r="12.783"/>
<circle fill="none" cx="129.262" cy="674.707" r="12.782"/>
<circle fill="none" cx="179.97" cy="2196.457" r="12.691"/>
<circle fill="none" cx="373.577" cy="1796.359" r="12.646"/>
<circle fill="none" cx="647.956" cy="257.481" r="12.542"/>
<circle fill="none" cx="399.212" cy="432.709" r="12.444"/>
<circle fill="none" cx="419.02" cy="810.552" r="12.408"/>
<circle fill="none" cx="599.277" cy="2048.69" r="12.394"/>
<circle fill="none" cx="472.1" cy="1926.136" r="12.296"/>
<circle fill="none" cx="704.446" cy="1470.398" r="12.184"/>
<circle fill="none" cx="438.305" cy="1453.858" r="12.183"/>
<circle fill="none" cx="388.753" cy="227.726" r="12.131"/>
<circle fill="none" cx="302.969" cy="1023.031" r="12.11"/>
<circle fill="none" cx="526.779" cy="1323.771" r="12.084"/>
<circle fill="none" cx="836.021" cy="1587.477" r="12.066"/>
<circle fill="none" cx="190.793" cy="1055.779" r="11.969"/>
<circle fill="none" cx="391.048" cy="692.345" r="11.95"/>
<circle fill="none" cx="340.272" cy="850.077" r="11.933"/>
<circle fill="none" cx="545.958" cy="1788.214" r="11.932"/>
<circle fill="none" cx="283.033" cy="945.325" r="11.929"/>
<circle fill="none" cx="457.473" cy="834.296" r="11.917"/>
<circle fill="none" cx="429.067" cy="722.325" r="11.825"/>
<circle fill="none" cx="474.643" cy="389.108" r="11.806"/>
<circle fill="none" cx="490.06" cy="1977.15" r="11.719"/>
<circle fill="none" cx="538.519" cy="261.732" r="11.662"/>
<circle fill="none" cx="367.921" cy="1424.992" r="11.662"/>
<circle fill="none" cx="557.306" cy="1871.037" r="11.66"/>
<circle fill="none" cx="188.634" cy="825.658" r="11.641"/>
<circle fill="none" cx="303.117" cy="1029.075" r="11.567"/>
<circle fill="none" cx="278.16" cy="656.918" r="11.527"/>
<circle fill="none" cx="526.672" cy="308.744" r="11.434"/>
<circle fill="none" cx="592.777" cy="2242.213" r="11.405"/>
<circle fill="none" cx="555.454" cy="1401.701" r="11.271"/>
<circle fill="none" cx="670.687" cy="314.193" r="11.262"/>
<circle fill="none" cx="407.792" cy="273.606" r="11.218"/>
<circle fill="none" cx="396.664" cy="1029.425" r="11.212"/>
<circle fill="none" cx="128.587" cy="1570.168" r="11.171"/>
<circle fill="none" cx="566.684" cy="348.552" r="11.149"/>
<circle fill="none" cx="517.061" cy="962.71" r="11.116"/>
<circle fill="none" cx="664.55" cy="1542.923" r="11.033"/>
<circle fill="none" cx="774.075" cy="198.161" r="10.913"/>
<circle fill="none" cx="587.17" cy="880.444" r="10.892"/>
<circle fill="none" cx="513.717" cy="1648.604" r="10.886"/>
<circle fill="none" cx="478.286" cy="932.881" r="10.858"/>
<circle fill="none" cx="431.333" cy="1713.229" r="10.774"/>
<circle fill="none" cx="269.612" cy="1276.153" r="10.734"/>
<circle fill="none" cx="140.434" cy="1780.598" r="10.564"/>
<circle fill="none" cx="557.56" cy="1217.347" r="10.405"/>
<circle fill="none" cx="656.61" cy="1291.717" r="10.395"/>
<circle fill="none" cx="195.392" cy="1116.777" r="10.341"/>
<circle fill="none" cx="739.897" cy="1948.064" r="10.211"/>
<circle fill="none" cx="363.889" cy="2002.975" r="10.101"/>
<circle fill="none" cx="405.176" cy="1974.712" r="9.908"/>
<circle fill="none" cx="445.597" cy="1296.111" r="9.857"/>
<circle fill="none" cx="242.531" cy="1637.002" r="9.844"/>
<circle fill="none" cx="260.139" cy="1196.163" r="9.789"/>
<circle fill="none" cx="251.593" cy="784.975" r="9.788"/>
<circle fill="none" cx="175.423" cy="2039.8" r="9.722"/>
<circle fill="none" cx="762.96" cy="1583.946" r="9.609"/>
<circle fill="none" cx="108.698" cy="173.336" r="9.605"/>
<circle fill="none" cx="333.965" cy="1182.501" r="9.581"/>
<circle fill="none" cx="644.499" cy="1243.742" r="9.568"/>
<circle fill="none" cx="688.155" cy="2047.686" r="9.54"/>
<circle fill="none" cx="295.438" cy="222.392" r="9.532"/>
<circle fill="none" cx="333.456" cy="1890.938" r="9.526"/>
<circle fill="none" cx="515.808" cy="181.1" r="9.496"/>
<circle fill="none" cx="397.064" cy="1309.68" r="9.47"/>
<circle fill="none" cx="645.902" cy="1634.054" r="9.352"/>
<circle fill="none" cx="302.708" cy="995.886" r="9.323"/>
<circle fill="none" cx="573.172" cy="1305.241" r="9.315"/>
<circle fill="none" cx="479.205" cy="999.228" r="9.287"/>
<circle fill="none" cx="564.39" cy="937.631" r="9.264"/>
<circle fill="none" cx="126.306" cy="2048.502" r="9.211"/>
<circle fill="none" cx="613.436" cy="1031.696" r="9.185"/>
<circle fill="none" cx="190.045" cy="1870.199" r="9.121"/>
<circle fill="none" cx="706.093" cy="1292.602" r="8.893"/>
<circle fill="none" cx="413.353" cy="1840.381" r="8.891"/>
<circle fill="none" cx="619.126" cy="1324.133" r="8.711"/>
<circle fill="none" cx="177.555" cy="1226.439" r="8.518"/>
<circle fill="none" cx="344.235" cy="954.354" r="8.439"/>
<circle fill="none" cx="598.349" cy="1648.34" r="8.4"/>
<circle fill="none" cx="207.105" cy="531.509" r="8.393"/>
<circle fill="none" cx="503.309" cy="633.645" r="8.348"/>
<circle fill="none" cx="120.542" cy="770.127" r="8.212"/>
<circle fill="none" cx="591.016" cy="240.993" r="8.185"/>
<circle fill="none" cx="516.566" cy="2222.404" r="8.179"/>
<circle fill="none" cx="681.323" cy="1668.963" r="8.176"/>
<circle fill="none" cx="262.697" cy="2149.921" r="8.122"/>
<circle fill="none" cx="811.255" cy="1428.761" r="8.121"/>
<circle fill="none" cx="702.375" cy="178.113" r="8.089"/>
<circle fill="none" cx="366.147" cy="2052.484" r="8.046"/>
<circle fill="none" cx="476.521" cy="875.755" r="8.039"/>
<circle fill="none" cx="696.771" cy="1876.96" r="7.809"/>
<circle fill="none" cx="150.641" cy="583.559" r="7.782"/>
<circle fill="none" cx="595.171" cy="1235.082" r="7.744"/>
<circle fill="none" cx="665.267" cy="2068.185" r="7.653"/>
<circle fill="none" cx="428.995" cy="1658.389" r="7.441"/>
<circle fill="none" cx="472.569" cy="2244.845" r="7.438"/>
<circle fill="none" cx="432.327" cy="951.411" r="7.435"/>
<circle fill="none" cx="134.165" cy="1403.961" r="7.429"/>
<circle fill="none" cx="772.971" cy="1535.073" r="7.232"/>
<circle fill="none" cx="684.075" cy="1935.122" r="7.222"/>
<circle fill="none" cx="566.6" cy="1103.449" r="7.192"/>
<circle fill="none" cx="306.002" cy="1938.139" r="7.072"/>
<circle fill="none" cx="428.641" cy="2119.119" r="7.037"/>
<circle fill="none" cx="139.897" cy="219.78" r="6.966"/>
<circle fill="none" cx="595.505" cy="1956.27" r="6.937"/>
<circle fill="none" cx="330.449" cy="2273.512" r="6.852"/>
<circle fill="none" cx="539.73" cy="1569.442" r="6.821"/>
<circle fill="none" cx="340.936" cy="1698.246" r="6.724"/>
<circle fill="none" cx="593.487" cy="2252.16" r="6.719"/>
<circle fill="none" cx="673.841" cy="1591.959" r="6.718"/>
<circle fill="none" cx="647.421" cy="2174.629" r="6.717"/>
<circle fill="none" cx="499.282" cy="843.47" r="6.714"/>
<circle fill="none" cx="524.694" cy="1473.87" r="6.713"/>
<circle fill="none" cx="247.251" cy="1031.787" r="6.692"/>
<circle fill="none" cx="583.812" cy="1228.016" r="6.631"/>
<circle fill="none" cx="354.526" cy="389.381" r="6.525"/>
<circle fill="none" cx="231.533" cy="344.675" r="6.518"/>
<circle fill="none" cx="305.78" cy="301.717" r="6.513"/>
<circle fill="none" cx="646.833" cy="1457.468" r="6.478"/>
<circle fill="none" cx="821.988" cy="1369.292" r="6.31"/>
<circle fill="none" cx="496.872" cy="512.54" r="6.244"/>
<circle fill="none" cx="179.076" cy="1952.728" r="6.234"/>
<circle fill="none" cx="567.419" cy="2280.266" r="6.225"/>
<circle fill="none" cx="663.68" cy="919.456" r="6.22"/>
<circle fill="none" cx="573.806" cy="458.079" r="5.956"/>
<circle fill="none" cx="232.255" cy="2194.146" r="5.852"/>
<circle fill="none" cx="330.774" cy="1394.6" r="5.825"/>
<circle fill="none" cx="378.253" cy="1737.479" r="5.793"/>
<circle fill="none" cx="642.972" cy="2224.522" r="5.664"/>
<circle fill="none" cx="154.78" cy="864.954" r="5.593"/>
<circle fill="none" cx="173.972" cy="778.101" r="5.56"/>
<circle fill="none" cx="597.828" cy="1546.178" r="5.5"/>
<circle fill="none" cx="789.913" cy="1323.313" r="5.482"/>
<circle fill="none" cx="705.803" cy="935.179" r="5.371"/>
<circle fill="none" cx="562.972" cy="1172.343" r="5.333"/>
<circle fill="none" cx="641.372" cy="2225.757" r="5.287"/>
<circle fill="none" cx="483.95" cy="1731.052" r="5.229"/>
<circle fill="none" cx="727.011" cy="2008.92" r="5.226"/>
<circle fill="none" cx="205.332" cy="1996.881" r="5.191"/>
<circle fill="none" cx="730.822" cy="302.225" r="5.189"/>
<circle fill="none" cx="564.609" cy="2200.373" r="5.096"/>
<circle fill="none" cx="602.346" cy="150.173" r="5.08"/>
<circle fill="none" cx="231.24" cy="980.628" r="5.066"/>
<circle fill="none" cx="400.037" cy="2165.725" r="5.058"/>
<circle fill="none" cx="277.177" cy="1551.152" r="5.04"/>
<circle fill="none" cx="284.414" cy="2058.662" r="4.996"/>
<circle fill="none" cx="445.523" cy="347.793" r="4.91"/>
<circle fill="none" cx="242.51" cy="1321.772" r="4.893"/>
<circle fill="none" cx="509.964" cy="1149.678" r="4.843"/>
<circle fill="none" cx="812.666" cy="1321.679" r="4.786"/>
<circle fill="none" cx="353.127" cy="1442.534" r="4.648"/>
<circle fill="none" cx="514.806" cy="987.813" r="4.645"/>
<circle fill="none" cx="826.381" cy="1529.347" r="4.544"/>
<circle fill="none" cx="190.067" cy="1066.546" r="4.533"/>
<circle fill="none" cx="317.727" cy="1509.596" r="4.526"/>
<circle fill="none" cx="470.61" cy="1836.565" r="4.498"/>
<circle fill="none" cx="328.171" cy="2088.129" r="4.411"/>
<circle fill="none" cx="245.554" cy="2283.482" r="4.402"/>
<circle fill="none" cx="529.188" cy="1009.739" r="4.212"/>
<circle fill="none" cx="419.127" cy="2059.979" r="4.183"/>
<circle fill="none" cx="249.963" cy="563.9" r="4.166"/>
<circle fill="none" cx="184.388" cy="679.105" r="4.113"/>
<circle fill="none" cx="247.299" cy="998.909" r="4.068"/>
<circle fill="none" cx="590.575" cy="1255.54" r="3.906"/>
<circle fill="none" cx="181.362" cy="1629.523" r="3.883"/>
<circle fill="none" cx="246.935" cy="2099.295" r="3.853"/>
<circle fill="none" cx="525.622" cy="388.923" r="3.742"/>
<circle fill="none" cx="223.844" cy="1826.254" r="3.726"/>
<circle fill="none" cx="494.084" cy="1784.854" r="3.672"/>
<circle fill="none" cx="752.231" cy="250.202" r="3.66"/>
<circle fill="none" cx="596.218" cy="450.256" r="3.521"/>
<circle fill="none" cx="325.777" cy="1132.204" r="3.457"/>
<circle fill="none" cx="218.873" cy="1462.815" r="3.421"/>
<circle fill="none" cx="137.561" cy="1662.419" r="3.414"/>
<circle fill="none" cx="737.657" cy="1334.841" r="3.398"/>
<circle fill="none" cx="148.358" cy="2274.392" r="3.376"/>
<circle fill="none" cx="642.702" cy="2023.504" r="3.369"/>
<circle fill="none" cx="279.06" cy="1106.361" r="3.286"/>
<circle fill="none" cx="637.721" cy="412.854" r="3.284"/>
<circle fill="none" cx="429.883" cy="2209.31" r="3.238"/>
<circle fill="none" cx="389.736" cy="865.901" r="3.066"/>
<circle fill="none" cx="129.578" cy="1047.916" r="2.922"/>
<circle fill="none" cx="425.566" cy="1425.525" r="2.839"/>
<circle fill="none" cx="239.983" cy="1145.641" r="2.762"/>
<circle fill="none" cx="369.143" cy="1357.219" r="2.751"/>
<circle fill="none" cx="291.028" cy="1712.214" r="2.723"/>
<circle fill="none" cx="390.569" cy="1892.471" r="2.688"/>
<circle fill="none" cx="562.317" cy="1166.204" r="2.67"/>
<circle fill="none" cx="393.36" cy="347.366" r="2.583"/>
<circle fill="none" cx="555.614" cy="1619.529" r="2.402"/>
<circle fill="none" cx="564.533" cy="2206.957" r="2.359"/>
<circle fill="none" cx="138.551" cy="1056.999" r="2.285"/>
<circle fill="none" cx="501.158" cy="1883.154" r="2.276"/>
<circle fill="none" cx="478.079" cy="2188.009" r="2.21"/>
<circle fill="none" cx="193.125" cy="1512.66" r="2.174"/>
<circle fill="none" cx="150.778" cy="2121.274" r="2.151"/>
<circle fill="none" cx="230.497" cy="1237.842" r="2.093"/>
<circle fill="none" cx="566.361" cy="188.942" r="2.076"/>
<circle fill="none" cx="423.226" cy="2262.59" r="1.983"/>
<circle fill="none" cx="243.166" cy="618.835" r="1.95"/>
<circle fill="none" cx="139.366" cy="1520.453" r="1.901"/>
<circle fill="none" cx="194.306" cy="2305.477" r="1.84"/>
<circle fill="none" cx="293.053" cy="2310.582" r="1.747"/>
<circle fill="none" cx="142.506" cy="303.508" r="1.685"/>
<circle fill="none" cx="385.372" cy="1452.755" r="1.678"/>
<circle fill="none" cx="186.061" cy="622.934" r="1.643"/>
<circle fill="none" cx="389.116" cy="919.543" r="1.437"/>
<circle fill="none" cx="434.787" cy="837.854" r="1.405"/>
<circle fill="none" cx="535.644" cy="801.807" r="1.393"/>
<circle fill="none" cx="126.016" cy="1964.035" r="1.385"/>
<circle fill="none" cx="702.449" cy="230.455" r="1.347"/>
<circle fill="none" cx="538.766" cy="440.685" r="1.319"/>
<circle fill="none" cx="442.94" cy="2010.061" r="1.267"/>
<circle fill="none" cx="337.132" cy="1425.253" r="1.237"/>
<circle fill="none" cx="712.297" cy="943.338" r="0.013"/>
</g>
<g class="paths">
	<polygon fill="none" stroke="#3A53A4" stroke-linecap="round" stroke-linejoin="round" points="37.758,1070.719 51.878,1049.884 
		107.911,1025.283 119.45,1035.936 77.581,1077.453 	"/>
	<polygon fill="none" stroke="#3A53A4" stroke-linecap="round" stroke-linejoin="round" points="14.486,2084.934 58.939,2108.445 
		101.271,2096.497 121.091,2047.96 95.474,2011.197 39.349,2008.834 0,2045.749 	"/>
	<polygon fill="none" stroke="#3A53A4" stroke-linecap="round" stroke-linejoin="round" points="9.725,411.83 53.052,444.792 
		100.698,431.694 128.626,390.98 109.61,347.795 59.313,338.164 15.701,365.9 	"/>
	<polygon fill="none" stroke="#3A53A4" stroke-linecap="round" stroke-linejoin="round" points="39.349,2008.834 95.474,2011.197 
		127.227,1960.461 104.068,1926.463 59.932,1930.582 26.966,1962.216 	"/>
	<polygon fill="none" stroke="#3A53A4" stroke-linecap="round" stroke-linejoin="round" points="14.735,190.712 24.992,231.954 
		62.694,259.336 111.142,259.008 135.886,221.161 107.209,169.802 51.122,154.836 	"/>
	<polygon fill="none" stroke="#3A53A4" stroke-linecap="round" stroke-linejoin="round" points="24.681,1766.865 33.492,1813.354 
		73.835,1833.677 119.041,1817.365 137.465,1780.824 115.345,1741.299 62.103,1736.652 	"/>
	<polygon fill="none" stroke="#3A53A4" stroke-linecap="round" stroke-linejoin="round" points="42.564,984.55 26.884,1022.658 
		73.302,1056.62 131.248,1045.4 136.693,1002.778 94.427,975.89 	"/>
	<polygon fill="none" stroke="#3A53A4" stroke-linecap="round" stroke-linejoin="round" points="26.167,62.536 13.709,107.71 
		51.122,154.836 107.209,169.802 144.613,132.625 140.735,80.428 88.135,46.258 	"/>
	<polygon fill="none" stroke="#3A53A4" stroke-linecap="round" stroke-linejoin="round" points="30.637,1557.338 78.794,1579.64 
		127.601,1568.189 137.44,1519.906 88.414,1496.582 30.417,1522.563 	"/>
	<polygon fill="none" stroke="#3A53A4" stroke-linecap="round" stroke-linejoin="round" points="55.42,714.354 36.973,754.076 
		78.584,792.097 126.358,767.545 114.853,720.169 	"/>
	<polygon fill="none" stroke="#3A53A4" stroke-linecap="round" stroke-linejoin="round" points="55.42,714.354 114.853,720.169 
		133.325,679.786 89.756,645.358 41.846,669.384 	"/>
	<polygon fill="none" stroke="#3A53A4" stroke-linecap="round" stroke-linejoin="round" points="37.607,497.037 75.082,524.094 
		121.914,506.648 132.085,466.494 100.698,431.694 53.052,444.792 	"/>
	<polygon fill="none" stroke="#3A53A4" stroke-linecap="round" stroke-linejoin="round" points="28.62,1406.066 25.92,1443.41 
		89.433,1460.34 147.233,1442.073 138.899,1408.076 83.799,1388.999 	"/>
	<polygon fill="none" stroke="#3A53A4" stroke-linecap="round" stroke-linejoin="round" points="57.365,2191.695 27.289,2232.573 
		48.29,2278.781 97.777,2293.875 146.911,2270.453 145.085,2229.813 106.963,2197.079 	"/>
	<polygon fill="none" stroke="#3A53A4" stroke-linecap="round" stroke-linejoin="round" points="59.313,338.164 109.61,347.795 
		142.474,305.633 111.142,259.008 62.694,259.336 43.729,296.33 	"/>
	<polygon fill="none" stroke="#3A53A4" stroke-linecap="round" stroke-linejoin="round" points="21.702,1045.997 22.881,1046.754 
		51.932,1087.137 89.344,1111.862 123.347,1102.585 140.789,1052.504 107.911,1025.283 51.878,1049.884 	"/>
	<polygon fill="none" stroke="#3A53A4" stroke-linecap="round" stroke-linejoin="round" points="57.365,2191.695 106.963,2197.079 
		145.494,2164.152 148.422,2125.158 101.271,2096.497 58.939,2108.445 36.543,2148.773 	"/>
	<polygon fill="none" stroke="#3A53A4" stroke-linecap="round" stroke-linejoin="round" points="62.103,1736.652 115.345,1741.299 
		150.573,1705.92 137.466,1662.892 82.517,1658.163 42.382,1696.544 	"/>
	<polygon fill="none" stroke="#3A53A4" stroke-linecap="round" stroke-linejoin="round" points="73.835,1833.677 73.052,1874.166 
		115.184,1887.317 143.731,1859.268 119.041,1817.365 	"/>
	<polygon fill="none" stroke="#3A53A4" stroke-linecap="round" stroke-linejoin="round" points="60.7,571.386 99.025,601.454 
		149.639,584.194 158.145,536.68 121.914,506.648 75.082,524.094 	"/>
	<polygon fill="none" stroke="#3A53A4" stroke-linecap="round" stroke-linejoin="round" points="89.344,1111.862 78.952,1154.951 
		105.017,1188.991 151.269,1184.995 159.207,1141.678 123.347,1102.585 	"/>
	<polygon fill="none" stroke="#3A53A4" stroke-linecap="round" stroke-linejoin="round" points="78.584,792.097 66.134,829.193 
		101.101,864.079 156.953,862.776 182.179,826.188 168.771,779.85 126.358,767.545 	"/>
	<polygon fill="none" stroke="#3A53A4" stroke-linecap="round" stroke-linejoin="round" points="73.302,1056.62 61.374,1091.386 
		77.581,1077.453 119.45,1035.936 185.231,1052.88 189.682,1061.807 131.248,1045.4 	"/>
	<polygon fill="none" stroke="#3A53A4" stroke-linecap="round" stroke-linejoin="round" points="82.517,1658.163 137.466,1662.892 
		182.494,1625.995 177.904,1585.15 127.601,1568.189 78.794,1579.64 58.705,1620.474 	"/>
	<polygon fill="none" stroke="#3A53A4" stroke-linecap="round" stroke-linejoin="round" points="83.799,1388.999 138.899,1408.076 
		182.995,1384.898 161.822,1341.459 109.981,1328.332 76.053,1352.694 	"/>
	<polygon fill="none" stroke="#3A53A4" stroke-linecap="round" stroke-linejoin="round" points="101.101,864.079 80.697,905.109 
		111.969,937.377 164.252,934.743 188.833,901.172 156.953,862.776 	"/>
	<polygon fill="none" stroke="#3A53A4" stroke-linecap="round" stroke-linejoin="round" points="105.017,1188.991 87.544,1224.577 
		113.847,1260.581 160.479,1267.677 180.428,1227.676 151.269,1184.995 	"/>
	<polygon fill="none" stroke="#3A53A4" stroke-linecap="round" stroke-linejoin="round" points="109.981,1328.332 161.822,1341.459 
		188.232,1311.591 160.479,1267.677 113.847,1260.581 89.758,1291.369 	"/>
	<polygon fill="none" stroke="#3A53A4" stroke-linecap="round" stroke-linejoin="round" points="99.025,601.454 89.756,645.358 
		133.325,679.786 182.15,676.334 189.195,624.646 149.639,584.194 	"/>
	<polygon fill="none" stroke="#3A53A4" stroke-linecap="round" stroke-linejoin="round" points="111.969,937.377 94.427,975.89 
		136.693,1002.778 181.103,975.429 164.252,934.743 	"/>
	<polygon fill="none" stroke="#3A53A4" stroke-linecap="round" stroke-linejoin="round" points="145.085,2229.813 183.617,2196.886 
		145.494,2164.152 106.963,2197.079 	"/>
	<polygon fill="none" stroke="#3A53A4" stroke-linecap="round" stroke-linejoin="round" points="128.626,390.98 100.698,431.694 
		132.085,466.494 175.647,449.921 177.405,404.843 	"/>
	<polygon fill="none" stroke="#3A53A4" stroke-linecap="round" stroke-linejoin="round" points="97.777,2293.875 103.615,2341.572 
		163.699,2351.857 196.979,2305.689 146.911,2270.453 	"/>
	<polygon fill="none" stroke="#3A53A4" stroke-linecap="round" stroke-linejoin="round" points="121.091,2047.96 179.888,2039.943 
		203.864,1997.436 176.82,1954.715 127.227,1960.461 95.474,2011.197 	"/>
	<polygon fill="none" stroke="#3A53A4" stroke-linecap="round" stroke-linejoin="round" points="101.271,2096.497 148.422,2125.158 
		197.603,2086.758 179.888,2039.943 121.091,2047.96 	"/>
	<polygon fill="none" stroke="#3A53A4" stroke-linecap="round" stroke-linejoin="round" points="89.433,1460.34 88.414,1496.582 
		137.44,1519.906 196.613,1510.072 229.409,1460.386 220.052,1455.793 196.029,1463.89 147.233,1442.073 	"/>
	<polygon fill="none" stroke="#3A53A4" stroke-linecap="round" stroke-linejoin="round" points="127.227,1960.461 176.82,1954.715 
		214.749,1914.549 195.469,1870.136 143.731,1859.268 115.184,1887.317 104.068,1926.463 	"/>
	<polygon fill="none" stroke="#3A53A4" stroke-linecap="round" stroke-linejoin="round" points="140.789,1052.504 123.347,1102.585 
		159.207,1141.678 197.251,1120.257 189.142,1060.48 	"/>
	<polygon fill="none" stroke="#3A53A4" stroke-linecap="round" stroke-linejoin="round" points="135.886,221.161 190.497,225.526 
		212.916,190.782 195.709,149.239 144.613,132.625 107.209,169.802 	"/>
	<polygon fill="none" stroke="#3A53A4" stroke-linecap="round" stroke-linejoin="round" points="137.465,1780.824 190.858,1784.33 
		217.488,1752.082 199.324,1713.195 150.573,1705.92 115.345,1741.299 	"/>
	<polygon fill="none" stroke="#3A53A4" stroke-linecap="round" stroke-linejoin="round" points="121.914,506.648 158.145,536.68 
		208.208,528.408 215.539,481.803 175.647,449.921 132.085,466.494 	"/>
	<polygon fill="none" stroke="#3A53A4" stroke-linecap="round" stroke-linejoin="round" points="137.465,1780.824 119.041,1817.365 
		143.731,1859.268 195.469,1870.136 224.172,1831.74 190.858,1784.33 	"/>
	<polygon fill="none" stroke="#3A53A4" stroke-linecap="round" stroke-linejoin="round" points="135.886,221.161 111.142,259.008 
		142.474,305.633 197.001,306.201 220.279,263.942 190.497,225.526 	"/>
	<polygon fill="none" stroke="#3A53A4" stroke-linecap="round" stroke-linejoin="round" points="128.626,390.98 177.405,404.843 
		216.405,388.174 227.655,344.618 197.001,306.201 142.474,305.633 109.61,347.795 	"/>
	<polygon fill="none" stroke="#3A53A4" stroke-linecap="round" stroke-linejoin="round" points="119.45,1035.936 107.911,1025.283 
		140.789,1052.504 189.142,1060.48 223.348,1038.408 242.382,995.27 241.078,1007.068 185.231,1052.88 	"/>
	<polygon fill="none" stroke="#3A53A4" stroke-linecap="round" stroke-linejoin="round" points="126.358,767.545 168.771,779.85 
		214.754,752.64 221.834,711.17 182.15,676.334 133.325,679.786 114.853,720.169 	"/>
	<polygon fill="none" stroke="#3A53A4" stroke-linecap="round" stroke-linejoin="round" points="137.44,1519.906 127.601,1568.189 
		177.904,1585.15 223.563,1550.491 196.613,1510.072 	"/>
	<polygon fill="none" stroke="#3A53A4" stroke-linecap="round" stroke-linejoin="round" points="136.693,1002.778 131.248,1045.4 
		189.682,1061.807 246.557,1027.473 232.532,983.718 181.103,975.429 	"/>
	<polygon fill="none" stroke="#3A53A4" stroke-linecap="round" stroke-linejoin="round" points="150.573,1705.92 199.324,1713.195 
		247.03,1684.674 243.308,1640.502 182.494,1625.995 137.466,1662.892 	"/>
	<polygon fill="none" stroke="#3A53A4" stroke-linecap="round" stroke-linejoin="round" points="158.145,536.68 149.639,584.194 
		189.195,624.646 239.791,615.81 250.299,567.085 208.208,528.408 	"/>
	<polygon fill="none" stroke="#3A53A4" stroke-linecap="round" stroke-linejoin="round" points="159.207,1141.678 151.269,1184.995 
		180.428,1227.676 228.907,1232.913 255.124,1196.954 239.596,1143.627 197.251,1120.257 	"/>
	<polygon fill="none" stroke="#3A53A4" stroke-linecap="round" stroke-linejoin="round" points="147.233,1442.073 196.029,1463.89 
		241.836,1460.703 237.136,1415.709 182.995,1384.898 138.899,1408.076 	"/>
	<polygon fill="none" stroke="#3A53A4" stroke-linecap="round" stroke-linejoin="round" points="148.422,2125.158 145.494,2164.152 
		183.617,2196.886 231.049,2195.082 259.401,2149.909 243.563,2097.98 197.603,2086.758 	"/>
	<polygon fill="none" stroke="#3A53A4" stroke-linecap="round" stroke-linejoin="round" points="145.085,2229.813 146.911,2270.453 
		196.979,2305.689 244.671,2286.939 260.616,2234.025 231.049,2195.082 183.617,2196.886 	"/>
	<polygon fill="none" stroke="#3A53A4" stroke-linecap="round" stroke-linejoin="round" points="180.428,1227.676 160.479,1267.677 
		188.232,1311.591 248.908,1320.213 269.634,1281.535 228.907,1232.913 	"/>
	<polygon fill="none" stroke="#3A53A4" stroke-linecap="round" stroke-linejoin="round" points="182.179,826.188 242.033,830.678 
		256.787,789.336 214.754,752.64 168.771,779.85 	"/>
	<polygon fill="none" stroke="#3A53A4" stroke-linecap="round" stroke-linejoin="round" points="182.179,826.188 156.953,862.776 
		188.833,901.172 236.867,903.51 264.841,869.605 242.033,830.678 	"/>
	<polygon fill="none" stroke="#3A53A4" stroke-linecap="round" stroke-linejoin="round" points="188.833,901.172 164.252,934.743 
		181.103,975.429 232.532,983.718 284.219,939.866 279.188,913.444 236.867,903.51 	"/>
	<polygon fill="none" stroke="#3A53A4" stroke-linecap="round" stroke-linejoin="round" points="177.405,404.843 175.647,449.921 
		215.539,481.803 268.243,463.168 267.351,414.617 216.405,388.174 	"/>
	<polygon fill="none" stroke="#3A53A4" stroke-linecap="round" stroke-linejoin="round" points="182.995,1384.898 237.136,1415.709 
		276.64,1380.892 248.908,1320.213 188.232,1311.591 161.822,1341.459 	"/>
	<polygon fill="none" stroke="#3A53A4" stroke-linecap="round" stroke-linejoin="round" points="203.864,1997.436 250.43,1986.219 
		258.998,1935.916 214.749,1914.549 176.82,1954.715 	"/>
	<polygon fill="none" stroke="#3A53A4" stroke-linecap="round" stroke-linejoin="round" points="189.195,624.646 182.15,676.334 
		221.834,711.17 267.578,700.127 278.489,656.455 239.791,615.81 	"/>
	<polygon fill="none" stroke="#3A53A4" stroke-linecap="round" stroke-linejoin="round" points="220.052,1455.793 265.859,1452.607 
		241.836,1460.703 196.029,1463.89 	"/>
	<polygon fill="none" stroke="#3A53A4" stroke-linecap="round" stroke-linejoin="round" points="182.494,1625.995 243.308,1640.502 
		298.328,1603.095 283.173,1553.928 223.563,1550.491 177.904,1585.15 	"/>
	<polygon fill="none" stroke="#3A53A4" stroke-linecap="round" stroke-linejoin="round" points="189.142,1060.48 197.251,1120.257 
		239.596,1143.627 279.175,1109.869 271.037,1064.425 223.348,1038.408 	"/>
	<polygon fill="none" stroke="#3A53A4" stroke-linecap="round" stroke-linejoin="round" points="212.916,190.782 261.845,190.548 
		276.279,150.817 236.321,125.082 195.709,149.239 	"/>
	<polygon fill="none" stroke="#3A53A4" stroke-linecap="round" stroke-linejoin="round" points="166.891,2346.58 201.415,2361.918 
		249.409,2399.93 292.472,2364.859 288.978,2313.377 244.671,2286.939 196.979,2305.689 163.699,2351.857 	"/>
	<polygon fill="none" stroke="#3A53A4" stroke-linecap="round" stroke-linejoin="round" points="203.864,1997.436 179.888,2039.943 
		197.603,2086.758 243.563,2097.98 283.836,2059.771 283.748,2012.459 250.43,1986.219 	"/>
	<polygon fill="none" stroke="#3A53A4" stroke-linecap="round" stroke-linejoin="round" points="212.916,190.782 190.497,225.526 
		220.279,263.942 275.092,263.494 294.239,224.844 261.845,190.548 	"/>
	<polygon fill="none" stroke="#3A53A4" stroke-linecap="round" stroke-linejoin="round" points="217.488,1752.082 190.858,1784.33 
		224.172,1831.74 268.349,1833.757 289.3,1790.732 271.753,1756.466 	"/>
	<polygon fill="none" stroke="#3A53A4" stroke-linecap="round" stroke-linejoin="round" points="217.488,1752.082 271.753,1756.466 
		293.057,1711.35 247.03,1684.674 199.324,1713.195 	"/>
	<polygon fill="none" stroke="#3A53A4" stroke-linecap="round" stroke-linejoin="round" points="220.279,263.942 197.001,306.201 
		227.655,344.618 280.318,340.203 304.477,301.338 275.092,263.494 	"/>
	<polygon fill="none" stroke="#3A53A4" stroke-linecap="round" stroke-linejoin="round" points="185.231,1052.88 241.078,1007.068 
		300.521,1020.844 301.55,1032.321 246.557,1027.473 189.682,1061.807 	"/>
	<polygon fill="none" stroke="#3A53A4" stroke-linecap="round" stroke-linejoin="round" points="221.834,711.17 214.754,752.64 
		256.787,789.336 313.069,776.417 316.779,728.678 267.578,700.127 	"/>
	<polygon fill="none" stroke="#3A53A4" stroke-linecap="round" stroke-linejoin="round" points="229.409,1460.386 196.613,1510.072 
		223.563,1550.491 283.173,1553.928 318.247,1512.342 291.433,1459.219 	"/>
	<polygon fill="none" stroke="#3A53A4" stroke-linecap="round" stroke-linejoin="round" points="227.655,344.618 216.405,388.174 
		267.351,414.617 304.38,386.062 280.318,340.203 	"/>
	<polygon fill="none" stroke="#3A53A4" stroke-linecap="round" stroke-linejoin="round" points="242.382,995.27 223.348,1038.408 
		271.037,1064.425 311.219,1038.697 303.167,998.203 	"/>
	<polygon fill="none" stroke="#3A53A4" stroke-linecap="round" stroke-linejoin="round" points="195.469,1870.136 214.749,1914.549 
		258.998,1935.916 306.021,1932.92 329.906,1892.509 307.781,1853.109 268.349,1833.757 224.172,1831.74 	"/>
	<polygon fill="none" stroke="#3A53A4" stroke-linecap="round" stroke-linejoin="round" points="215.539,481.803 208.208,528.408 
		250.299,567.085 299.366,566.843 309.337,532.905 302.912,488.845 268.243,463.168 	"/>
	<polygon fill="none" stroke="#3A53A4" stroke-linecap="round" stroke-linejoin="round" points="229.409,1460.386 291.433,1459.219 
		337.613,1420.188 355.877,1423.752 319.684,1445.974 265.859,1452.607 220.052,1455.793 	"/>
	<polygon fill="none" stroke="#3A53A4" stroke-linecap="round" stroke-linejoin="round" points="264.841,869.605 236.867,903.51 
		279.188,913.444 307.163,879.539 	"/>
	<polygon fill="none" stroke="#3A53A4" stroke-linecap="round" stroke-linejoin="round" points="255.124,1196.954 228.907,1232.913 
		269.634,1281.535 315.22,1265.82 304.317,1214.227 	"/>
	<polygon fill="none" stroke="#3A53A4" stroke-linecap="round" stroke-linejoin="round" points="259.401,2149.909 231.049,2195.082 
		260.616,2234.025 316.959,2227.145 344.631,2178.091 316.64,2139.8 	"/>
	<polygon fill="none" stroke="#3A53A4" stroke-linecap="round" stroke-linejoin="round" points="239.596,1143.627 255.124,1196.954 
		304.317,1214.227 334.138,1182.11 324.523,1131.079 279.175,1109.869 	"/>
	<polygon fill="none" stroke="#3A53A4" stroke-linecap="round" stroke-linejoin="round" points="258.998,1935.916 250.43,1986.219 
		283.748,2012.459 326.079,1981.691 306.021,1932.92 	"/>
	<polygon fill="none" stroke="#3A53A4" stroke-linecap="round" stroke-linejoin="round" points="259.401,2149.909 316.64,2139.8 
		329.43,2086.342 283.836,2059.771 243.563,2097.98 	"/>
	<polygon fill="none" stroke="#3A53A4" stroke-linecap="round" stroke-linejoin="round" points="241.836,1460.703 265.859,1452.607 
		319.684,1445.974 349.974,1445.031 324.881,1394.402 276.64,1380.892 237.136,1415.709 	"/>
	<polygon fill="none" stroke="#3A53A4" stroke-linecap="round" stroke-linejoin="round" points="250.299,567.085 239.791,615.81 
		278.489,656.455 319.815,649.682 330.185,608.795 299.366,566.843 	"/>
	<polygon fill="none" stroke="#3A53A4" stroke-linecap="round" stroke-linejoin="round" points="244.671,2286.939 288.978,2313.377 
		334.371,2272.787 316.959,2227.145 260.616,2234.025 	"/>
	<polygon fill="none" stroke="#3A53A4" stroke-linecap="round" stroke-linejoin="round" points="242.382,995.27 303.167,998.203 
		349.438,969.301 348.096,980.144 300.521,1020.844 241.078,1007.068 	"/>
	<polygon fill="none" stroke="#3A53A4" stroke-linecap="round" stroke-linejoin="round" points="232.532,983.718 246.557,1027.473 
		301.55,1032.321 346.275,1002.359 342.971,953.659 284.219,939.866 	"/>
	<polygon fill="none" stroke="#3A53A4" stroke-linecap="round" stroke-linejoin="round" points="289.3,1790.732 268.349,1833.757 
		307.781,1853.109 328.732,1810.085 	"/>
	<polygon fill="none" stroke="#3A53A4" stroke-linecap="round" stroke-linejoin="round" points="256.787,789.336 242.033,830.678 
		264.841,869.605 307.163,879.539 344.526,847.167 363.119,838.467 359.229,818.993 313.069,776.417 	"/>
	<polygon fill="none" stroke="#3A53A4" stroke-linecap="round" stroke-linejoin="round" points="247.03,1684.674 293.057,1711.35 
		338.55,1700 348.198,1656.428 338.56,1614.798 298.328,1603.095 243.308,1640.502 	"/>
	<polygon fill="none" stroke="#3A53A4" stroke-linecap="round" stroke-linejoin="round" points="276.279,150.817 261.845,190.548 
		294.239,224.844 342.426,212.293 356.244,170.346 322.491,143.166 	"/>
	<polygon fill="none" stroke="#3A53A4" stroke-linecap="round" stroke-linejoin="round" points="278.489,656.455 267.578,700.127 
		316.779,728.678 349.441,698.288 319.815,649.682 	"/>
	<polygon fill="none" stroke="#3A53A4" stroke-linecap="round" stroke-linejoin="round" points="279.175,1109.869 324.523,1131.079 
		361.751,1101.464 356.584,1054.525 311.219,1038.697 271.037,1064.425 	"/>
	<polygon fill="none" stroke="#3A53A4" stroke-linecap="round" stroke-linejoin="round" points="269.634,1281.535 248.908,1320.213 
		276.64,1380.892 324.881,1394.402 368.935,1354.279 387.447,1310.492 361.247,1274.222 315.22,1265.82 	"/>
	<polygon fill="none" stroke="#3A53A4" stroke-linecap="round" stroke-linejoin="round" points="309.337,532.905 346.76,527.481 
		340.335,483.421 302.912,488.845 	"/>
	<polygon fill="none" stroke="#3A53A4" stroke-linecap="round" stroke-linejoin="round" points="268.243,463.168 302.912,488.845 
		340.335,483.421 381.078,474.775 395.125,435.793 356.744,390.206 304.38,386.062 267.351,414.617 	"/>
	<polygon fill="none" stroke="#3A53A4" stroke-linecap="round" stroke-linejoin="round" points="283.836,2059.771 329.43,2086.342 
		366.115,2056.836 362.853,1999.499 326.079,1981.691 283.748,2012.459 	"/>
	<polygon fill="none" stroke="#3A53A4" stroke-linecap="round" stroke-linejoin="round" points="289.3,1790.732 328.732,1810.085 
		374.286,1794.764 381.348,1740.746 338.55,1700 293.057,1711.35 271.753,1756.466 	"/>
	<polygon fill="none" stroke="#3A53A4" stroke-linecap="round" stroke-linejoin="round" points="304.477,301.338 280.318,340.203 
		304.38,386.062 356.744,390.206 389.255,347.423 361.051,304.413 	"/>
	<polygon fill="none" stroke="#3A53A4" stroke-linecap="round" stroke-linejoin="round" points="294.239,224.844 275.092,263.494 
		304.477,301.338 361.051,304.413 399.847,270.779 387.854,232.31 342.426,212.293 	"/>
	<polygon fill="none" stroke="#3A53A4" stroke-linecap="round" stroke-linejoin="round" points="292.472,2364.859 342.309,2381.871 
		381.696,2348.223 377.252,2290.621 334.371,2272.787 288.978,2313.377 	"/>
	<polygon fill="none" stroke="#3A53A4" stroke-linecap="round" stroke-linejoin="round" points="318.247,1512.342 372.222,1508.141 
		387.695,1451.121 337.613,1420.188 291.433,1459.219 	"/>
	<polygon fill="none" stroke="#3A53A4" stroke-linecap="round" stroke-linejoin="round" points="284.219,939.866 342.971,953.659 
		388.718,920.825 388.499,865.833 344.526,847.167 307.163,879.539 279.188,913.444 	"/>
	<polygon fill="none" stroke="#3A53A4" stroke-linecap="round" stroke-linejoin="round" points="309.337,532.905 299.366,566.843 
		330.185,608.795 369.188,611.311 392.724,580.249 382.077,543.64 346.76,527.481 	"/>
	<polygon fill="none" stroke="#3A53A4" stroke-linecap="round" stroke-linejoin="round" points="315.22,1265.82 361.247,1274.222 
		389.857,1234.609 373.65,1194.091 334.138,1182.11 304.317,1214.227 	"/>
	<polygon fill="none" stroke="#3A53A4" stroke-linecap="round" stroke-linejoin="round" points="301.55,1032.321 300.521,1020.844 
		348.096,980.144 402.902,1006.8 400.053,1017.538 346.275,1002.359 	"/>
	<polygon fill="none" stroke="#3A53A4" stroke-linecap="round" stroke-linejoin="round" points="298.328,1603.095 338.56,1614.798 
		378.16,1600.757 410.086,1578.576 409.306,1539.25 372.222,1508.141 318.247,1512.342 283.173,1553.928 	"/>
	<polygon fill="none" stroke="#3A53A4" stroke-linecap="round" stroke-linejoin="round" points="311.219,1038.697 356.584,1054.525 
		396.896,1030.105 397.802,985.375 349.438,969.301 303.167,998.203 	"/>
	<polygon fill="none" stroke="#3A53A4" stroke-linecap="round" stroke-linejoin="round" points="348.198,1656.428 387.799,1642.386 
		378.16,1600.757 338.56,1614.798 	"/>
	<polygon fill="none" stroke="#3A53A4" stroke-linecap="round" stroke-linejoin="round" points="330.185,608.795 319.815,649.682 
		349.441,698.288 387.524,695.25 396.901,649.159 369.188,611.311 	"/>
	<polygon fill="none" stroke="#3A53A4" stroke-linecap="round" stroke-linejoin="round" points="329.906,1892.509 391.527,1893.324 
		414.955,1838.605 374.286,1794.764 328.732,1810.085 307.781,1853.109 	"/>
	<polygon fill="none" stroke="#3A53A4" stroke-linecap="round" stroke-linejoin="round" points="349.974,1445.031 396.765,1427.831 
		406.338,1382.124 368.935,1354.279 324.881,1394.402 	"/>
	<polygon fill="none" stroke="#3A53A4" stroke-linecap="round" stroke-linejoin="round" points="329.906,1892.509 306.021,1932.92 
		326.079,1981.691 362.853,1999.499 404.202,1974.908 420.412,1928.966 391.527,1893.324 	"/>
	<polygon fill="none" stroke="#3A53A4" stroke-linecap="round" stroke-linejoin="round" points="324.523,1131.079 334.138,1182.11 
		373.65,1194.091 409.959,1166.813 407.675,1125.217 361.751,1101.464 	"/>
	<polygon fill="none" stroke="#3A53A4" stroke-linecap="round" stroke-linejoin="round" points="344.631,2178.091 316.959,2227.145 
		334.371,2272.787 377.252,2290.621 421.673,2261.722 428.068,2210.76 395.993,2168.658 	"/>
	<polygon fill="none" stroke="#3A53A4" stroke-linecap="round" stroke-linejoin="round" points="344.631,2178.091 395.993,2168.658 
		435.475,2110.35 422.255,2064.311 366.115,2056.836 329.43,2086.342 316.64,2139.8 	"/>
	<polygon fill="none" stroke="#3A53A4" stroke-linecap="round" stroke-linejoin="round" points="339.78,103.147 322.491,143.166 
		356.244,170.346 406.452,167.947 429.257,136.743 396.338,99.123 	"/>
	<polygon fill="none" stroke="#3A53A4" stroke-linecap="round" stroke-linejoin="round" points="340.335,483.421 346.76,527.481 
		382.077,543.64 415.751,514.31 381.078,474.775 	"/>
	<polygon fill="none" stroke="#3A53A4" stroke-linecap="round" stroke-linejoin="round" points="313.069,776.417 359.229,818.993 
		416.519,809.274 443.004,766.461 427.506,725.402 387.524,695.25 349.441,698.288 316.779,728.678 	"/>
	<polygon fill="none" stroke="#3A53A4" stroke-linecap="round" stroke-linejoin="round" points="348.198,1656.428 338.55,1700 
		381.348,1740.746 432.009,1715.316 428.813,1660.529 387.799,1642.386 	"/>
	<polygon fill="none" stroke="#3A53A4" stroke-linecap="round" stroke-linejoin="round" points="342.426,212.293 387.854,232.31 
		429.561,204.177 406.452,167.947 356.244,170.346 	"/>
	<polygon fill="none" stroke="#3A53A4" stroke-linecap="round" stroke-linejoin="round" points="363.119,838.467 344.526,847.167 
		388.499,865.833 436.454,837.638 450.919,833.81 421.556,853.306 	"/>
	<polygon fill="none" stroke="#3A53A4" stroke-linecap="round" stroke-linejoin="round" points="342.971,953.659 346.275,1002.359 
		400.053,1017.538 439.96,996.051 431.931,948.039 388.718,920.825 	"/>
	<polygon fill="none" stroke="#3A53A4" stroke-linecap="round" stroke-linejoin="round" points="355.877,1423.752 432.373,1426.795 
		442.97,1431.816 396.765,1427.831 349.974,1445.031 319.684,1445.974 	"/>
	<polygon fill="none" stroke="#3A53A4" stroke-linecap="round" stroke-linejoin="round" points="359.229,818.993 363.119,838.467 
		421.556,853.306 448.29,850.881 416.519,809.274 	"/>
	<polygon fill="none" stroke="#3A53A4" stroke-linecap="round" stroke-linejoin="round" points="356.584,1054.525 361.751,1101.464 
		407.675,1125.217 438.054,1099.371 432.442,1051.197 396.896,1030.105 	"/>
	<polygon fill="none" stroke="#3A53A4" stroke-linecap="round" stroke-linejoin="round" points="362.853,1999.499 366.115,2056.836 
		422.255,2064.311 446.638,2011.619 404.202,1974.908 	"/>
	<polygon fill="none" stroke="#3A53A4" stroke-linecap="round" stroke-linejoin="round" points="355.877,1423.752 337.613,1420.188 
		387.695,1451.121 433.273,1447.52 459.686,1419.629 432.373,1426.795 	"/>
	<polygon fill="none" stroke="#3A53A4" stroke-linecap="round" stroke-linejoin="round" points="348.096,980.144 349.438,969.301 
		397.802,985.375 448.974,963.246 455.416,973.828 402.902,1006.8 	"/>
	<polygon fill="none" stroke="#3A53A4" stroke-linecap="round" stroke-linejoin="round" points="373.65,1194.091 389.857,1234.609 
		432.385,1233.564 443.839,1192.946 409.959,1166.813 	"/>
	<polygon fill="none" stroke="#3A53A4" stroke-linecap="round" stroke-linejoin="round" points="392.724,580.249 369.188,611.311 
		396.901,649.159 433.001,635.409 433.537,593.033 	"/>
	<polygon fill="none" stroke="#3A53A4" stroke-linecap="round" stroke-linejoin="round" points="395.125,435.793 451.688,431.596 
		472.695,386.865 448.646,348.28 389.255,347.423 356.744,390.206 	"/>
	<polygon fill="none" stroke="#3A53A4" stroke-linecap="round" stroke-linejoin="round" points="387.447,1310.492 455.611,1295.036 
		471.94,1257.722 432.385,1233.564 389.857,1234.609 361.247,1274.222 	"/>
	<polygon fill="none" stroke="#3A53A4" stroke-linecap="round" stroke-linejoin="round" points="377.252,2290.621 381.696,2348.223 
		428.938,2369.566 464.585,2339.64 461.765,2289.396 421.673,2261.722 	"/>
	<polygon fill="none" stroke="#3A53A4" stroke-linecap="round" stroke-linejoin="round" points="389.255,347.423 448.646,348.28 
		475.482,311.658 454.888,277.167 399.847,270.779 361.051,304.413 	"/>
	<polygon fill="none" stroke="#3A53A4" stroke-linecap="round" stroke-linejoin="round" points="387.695,1451.121 372.222,1508.141 
		409.306,1539.25 466.913,1527.354 475.407,1492.642 433.273,1447.52 	"/>
	<polygon fill="none" stroke="#3A53A4" stroke-linecap="round" stroke-linejoin="round" points="387.447,1310.492 368.935,1354.279 
		406.338,1382.124 448.175,1362.989 478.936,1319.688 455.611,1295.036 	"/>
	<polygon fill="none" stroke="#3A53A4" stroke-linecap="round" stroke-linejoin="round" points="410.086,1578.576 378.16,1600.757 
		387.799,1642.386 428.813,1660.529 469.288,1631.098 460.2,1590.773 	"/>
	<polygon fill="none" stroke="#3A53A4" stroke-linecap="round" stroke-linejoin="round" points="396.901,649.159 387.524,695.25 
		427.506,725.402 467.106,702.946 463.225,659.044 433.001,635.409 	"/>
	<polygon fill="none" stroke="#3A53A4" stroke-linecap="round" stroke-linejoin="round" points="392.724,580.249 433.537,593.033 
		463.046,573.213 455.907,531.098 415.751,514.31 382.077,543.64 	"/>
	<polygon fill="none" stroke="#3A53A4" stroke-linecap="round" stroke-linejoin="round" points="406.338,1382.124 396.765,1427.831 
		442.97,1431.816 474.524,1387.832 448.175,1362.989 	"/>
	<polygon fill="none" stroke="#3A53A4" stroke-linecap="round" stroke-linejoin="round" points="388.499,865.833 388.718,920.825 
		431.931,948.039 475.154,929.565 479.897,874.156 436.454,837.638 	"/>
	<polygon fill="none" stroke="#3A53A4" stroke-linecap="round" stroke-linejoin="round" points="381.348,1740.746 374.286,1794.764 
		414.955,1838.605 467.88,1833.881 492.955,1785.759 479.12,1733.488 432.009,1715.316 	"/>
	<polygon fill="none" stroke="#3A53A4" stroke-linecap="round" stroke-linejoin="round" points="397.802,985.375 396.896,1030.105 
		432.442,1051.197 466.502,1037.994 482.128,994.771 448.974,963.246 	"/>
	<polygon fill="none" stroke="#3A53A4" stroke-linecap="round" stroke-linejoin="round" points="428.068,2210.76 481.019,2187.966 
		488.117,2125.238 435.475,2110.35 395.993,2168.658 	"/>
	<polygon fill="none" stroke="#3A53A4" stroke-linecap="round" stroke-linejoin="round" points="429.362,2272.364 494.132,2233.502 
		505.682,2220.843 502.826,2238.04 473.152,2249.547 411.237,2271.211 	"/>
	<polygon fill="none" stroke="#3A53A4" stroke-linecap="round" stroke-linejoin="round" points="395.125,435.793 381.078,474.775 
		415.751,514.31 455.907,531.098 494.278,509.941 492.941,465.735 451.688,431.596 	"/>
	<polygon fill="none" stroke="#3A53A4" stroke-linecap="round" stroke-linejoin="round" points="399.847,270.779 454.888,277.167 
		493.004,248.093 479.669,213.572 429.561,204.177 387.854,232.31 	"/>
	<polygon fill="none" stroke="#3A53A4" stroke-linecap="round" stroke-linejoin="round" points="411.237,2271.211 473.152,2249.547 
		507.931,2289.936 490.924,2345.083 434.17,2365.52 389.263,2332.036 	"/>
	<polygon fill="none" stroke="#3A53A4" stroke-linecap="round" stroke-linejoin="round" points="420.412,1928.966 404.202,1974.908 
		446.638,2011.619 493.092,1981.361 478.514,1925.932 	"/>
	<polygon fill="none" stroke="#3A53A4" stroke-linecap="round" stroke-linejoin="round" points="414.955,1838.605 391.527,1893.324 
		420.412,1928.966 478.514,1925.932 502.554,1885.566 467.88,1833.881 	"/>
	<polygon fill="none" stroke="#3A53A4" stroke-linecap="round" stroke-linejoin="round" points="410.086,1578.576 460.2,1590.773 
		493.76,1561.74 466.913,1527.354 409.306,1539.25 	"/>
	<polygon fill="none" stroke="#3A53A4" stroke-linecap="round" stroke-linejoin="round" points="407.675,1125.217 409.959,1166.813 
		443.839,1192.946 487.511,1189.399 508.459,1150.316 483.671,1109.104 438.054,1099.371 	"/>
	<polygon fill="none" stroke="#3A53A4" stroke-linecap="round" stroke-linejoin="round" points="400.053,1017.538 402.902,1006.8 
		455.416,973.828 510.628,992.403 498.021,1003.888 439.96,996.051 	"/>
	<polygon fill="none" stroke="#3A53A4" stroke-linecap="round" stroke-linejoin="round" points="429.257,136.743 406.452,167.947 
		429.561,204.177 479.669,213.572 513.396,180.249 486.094,139.649 	"/>
	<polygon fill="none" stroke="#3A53A4" stroke-linecap="round" stroke-linejoin="round" points="438.054,1099.371 483.671,1109.104 
		499.281,1073.319 466.502,1037.994 432.442,1051.197 	"/>
	<polygon fill="none" stroke="#3A53A4" stroke-linecap="round" stroke-linejoin="round" points="433.001,635.409 463.225,659.044 
		503.851,634.928 503.136,591.474 463.046,573.213 433.537,593.033 	"/>
	<polygon fill="none" stroke="#3A53A4" stroke-linecap="round" stroke-linejoin="round" points="541.247,727.582 564.392,605.445 
		529.333,529.162 527.031,593.077 527.482,637.016 506.64,695.239 	"/>
	<polygon fill="none" stroke="#3A53A4" stroke-linecap="round" stroke-linejoin="round" points="428.068,2210.76 421.673,2261.722 
		461.765,2289.396 503.695,2268.055 516.554,2217.586 481.019,2187.966 	"/>
	<polygon fill="none" stroke="#3A53A4" stroke-linecap="round" stroke-linejoin="round" points="431.931,948.039 439.96,996.051 
		498.021,1003.888 520.021,966.434 475.154,929.565 	"/>
	<polygon fill="none" stroke="#3A53A4" stroke-linecap="round" stroke-linejoin="round" points="443.004,766.461 416.519,809.274 
		448.29,850.881 506.047,843.017 532.617,803.531 501.344,768.582 	"/>
	<polygon fill="none" stroke="#3A53A4" stroke-linecap="round" stroke-linejoin="round" points="443.839,1192.946 432.385,1233.564 
		471.94,1257.722 510.901,1232.569 487.511,1189.399 	"/>
	<polygon fill="none" stroke="#3A53A4" stroke-linecap="round" stroke-linejoin="round" points="450.919,833.81 505.609,822.954 
		534.005,834.586 506.047,843.017 448.29,850.881 421.556,853.306 	"/>
	<polygon fill="none" stroke="#3A53A4" stroke-linecap="round" stroke-linejoin="round" points="443.004,766.461 501.344,768.582 
		510.32,729.077 467.106,702.946 427.506,725.402 	"/>
	<polygon fill="none" stroke="#3A53A4" stroke-linecap="round" stroke-linejoin="round" points="459.686,1419.629 433.273,1447.52 
		475.407,1492.642 528.257,1471.678 520.332,1433.496 	"/>
	<polygon fill="none" stroke="#3A53A4" stroke-linecap="round" stroke-linejoin="round" points="432.009,1715.316 479.12,1733.488 
		520.83,1695.717 514.194,1648.113 469.288,1631.098 428.813,1660.529 	"/>
	<polygon fill="none" stroke="#3A53A4" stroke-linecap="round" stroke-linejoin="round" points="541.247,727.582 506.64,695.239 
		536.153,743.27 536.902,796.58 545.699,784.276 579.557,763.309 	"/>
	<polygon fill="none" stroke="#3A53A4" stroke-linecap="round" stroke-linejoin="round" points="450.919,833.81 436.454,837.638 
		479.897,874.156 515.807,867.101 543.767,842.595 549.132,812.834 505.609,822.954 	"/>
	<polygon fill="none" stroke="#3A53A4" stroke-linecap="round" stroke-linejoin="round" points="478.936,1319.688 448.175,1362.989 
		474.524,1387.832 522.839,1370.096 529.989,1324.875 	"/>
	<polygon fill="none" stroke="#3A53A4" stroke-linecap="round" stroke-linejoin="round" points="435.475,2110.35 488.117,2125.238 
		527.667,2092.761 550.118,2041.584 543.802,1997.766 493.092,1981.361 446.638,2011.619 422.255,2064.311 	"/>
	<polygon fill="none" stroke="#3A53A4" stroke-linecap="round" stroke-linejoin="round" points="472.695,386.865 451.688,431.596 
		492.941,465.735 542.464,438.329 530.525,389.952 	"/>
	<polygon fill="none" stroke="#3A53A4" stroke-linecap="round" stroke-linejoin="round" points="464.585,2339.64 506.554,2344.645 
		528.799,2297.844 503.695,2268.055 461.765,2289.396 	"/>
	<polygon fill="none" stroke="#3A53A4" stroke-linecap="round" stroke-linejoin="round" points="455.907,531.098 463.046,573.213 
		503.136,591.474 537.089,573.075 535.37,533.658 494.278,509.941 	"/>
	<polygon fill="none" stroke="#3A53A4" stroke-linecap="round" stroke-linejoin="round" points="463.225,659.044 467.106,702.946 
		510.32,729.077 540.845,710.715 538.255,660.47 503.851,634.928 	"/>
	<polygon fill="none" stroke="#3A53A4" stroke-linecap="round" stroke-linejoin="round" points="475.482,311.658 535.606,307.683 
		545.128,265.826 493.004,248.093 454.888,277.167 	"/>
	<polygon fill="none" stroke="#3A53A4" stroke-linecap="round" stroke-linejoin="round" points="482.128,994.771 466.502,1037.994 
		499.281,1073.319 537.52,1059.428 528.696,1003.309 	"/>
	<polygon fill="none" stroke="#3A53A4" stroke-linecap="round" stroke-linejoin="round" points="442.97,1431.816 432.373,1426.795 
		459.686,1419.629 520.332,1433.496 553.644,1400.145 522.839,1370.096 474.524,1387.832 	"/>
	<polygon fill="none" stroke="#3A53A4" stroke-linecap="round" stroke-linejoin="round" points="469.288,1631.098 514.194,1648.113 
		556.061,1617.266 544.714,1571.216 493.76,1561.74 460.2,1590.773 	"/>
	<polygon fill="none" stroke="#3A53A4" stroke-linecap="round" stroke-linejoin="round" points="472.695,386.865 530.525,389.952 
		566.601,347.391 535.606,307.683 475.482,311.658 448.646,348.28 	"/>
	<polygon fill="none" stroke="#3A53A4" stroke-linecap="round" stroke-linejoin="round" points="455.416,973.828 448.974,963.246 
		482.128,994.771 528.696,1003.309 580.403,979.167 577.112,970.068 510.628,992.403 	"/>
	<polygon fill="none" stroke="#3A53A4" stroke-linecap="round" stroke-linejoin="round" points="492.955,1785.759 467.88,1833.881 
		502.554,1885.566 559.332,1872.994 575.415,1824.504 543.712,1788.954 	"/>
	<polygon fill="none" stroke="#3A53A4" stroke-linecap="round" stroke-linejoin="round" points="479.897,874.156 475.154,929.565 
		520.021,966.434 570.326,935.987 561.369,892.065 515.807,867.101 	"/>
	<polygon fill="none" stroke="#3A53A4" stroke-linecap="round" stroke-linejoin="round" points="492.955,1785.759 543.712,1788.954 
		571.979,1753.191 562.932,1712.225 520.83,1695.717 479.12,1733.488 	"/>
	<polygon fill="none" stroke="#3A53A4" stroke-linecap="round" stroke-linejoin="round" points="471.94,1257.722 455.611,1295.036 
		478.936,1319.688 529.989,1324.875 570.776,1304.72 588.601,1249.639 563.451,1219.99 510.901,1232.569 	"/>
	<polygon fill="none" stroke="#3A53A4" stroke-linecap="round" stroke-linejoin="round" points="475.407,1492.642 466.913,1527.354 
		493.76,1561.74 544.714,1571.216 596.327,1541.039 588.913,1490.081 528.257,1471.678 	"/>
	<polygon fill="none" stroke="#3A53A4" stroke-linecap="round" stroke-linejoin="round" points="502.826,2238.04 562.288,2260.624 
		565.64,2278.229 507.931,2289.936 473.152,2249.547 	"/>
	<polygon fill="none" stroke="#3A53A4" stroke-linecap="round" stroke-linejoin="round" points="488.117,2125.238 481.019,2187.966 
		516.554,2217.586 563.736,2201.104 576.526,2153.255 558.425,2111.082 527.667,2092.761 	"/>
	<polygon fill="none" stroke="#3A53A4" stroke-linecap="round" stroke-linejoin="round" points="558.89,1171.071 566.488,1175.878 
		594.104,1234.332 586.505,1229.524 	"/>
	<polygon fill="none" stroke="#3A53A4" stroke-linecap="round" stroke-linejoin="round" points="493.004,248.093 545.128,265.826 
		590.757,240.511 572.36,189.455 513.396,180.249 479.669,213.572 	"/>
	<polygon fill="none" stroke="#3A53A4" stroke-linecap="round" stroke-linejoin="round" points="508.459,1150.316 567.229,1163.972 
		566.488,1175.878 558.89,1171.071 573.08,1104.061 537.52,1059.428 499.281,1073.319 483.671,1109.104 	"/>
	<polygon fill="none" stroke="#3A53A4" stroke-linecap="round" stroke-linejoin="round" points="505.682,2220.843 563.513,2214.311 
		590.618,2248.398 562.288,2260.624 502.826,2238.04 	"/>
	<polygon fill="none" stroke="#3A53A4" stroke-linecap="round" stroke-linejoin="round" points="508.459,1150.316 487.511,1189.399 
		510.901,1232.569 563.451,1219.99 567.229,1163.972 	"/>
	<polygon fill="none" stroke="#3A53A4" stroke-linecap="round" stroke-linejoin="round" points="493.092,1981.361 543.802,1997.766 
		595.975,1953.76 602.256,1901.42 559.332,1872.994 502.554,1885.566 478.514,1925.932 	"/>
	<polygon fill="none" stroke="#3A53A4" stroke-linecap="round" stroke-linejoin="round" points="543.767,842.595 515.807,867.101 
		561.369,892.065 595.364,900.587 590.109,888.963 	"/>
	<polygon fill="none" stroke="#3A53A4" stroke-linecap="round" stroke-linejoin="round" points="494.278,509.941 535.37,533.658 
		554.537,487.529 580.333,459.246 592.889,452.69 542.464,438.329 492.941,465.735 	"/>
	<polygon fill="none" stroke="#3A53A4" stroke-linecap="round" stroke-linejoin="round" points="516.635,101.365 486.094,139.649 
		513.396,180.249 572.36,189.455 601.769,154.061 573.347,106.569 	"/>
	<polygon fill="none" stroke="#3A53A4" stroke-linecap="round" stroke-linejoin="round" points="516.554,2217.586 503.695,2268.055 
		528.799,2297.844 570.878,2286.576 592.956,2240.303 563.736,2201.104 	"/>
	<polygon fill="none" stroke="#3A53A4" stroke-linecap="round" stroke-linejoin="round" points="507.931,2289.936 565.64,2278.229 
		570.878,2286.576 528.799,2297.844 506.554,2344.645 490.924,2345.083 	"/>
	<polygon fill="none" stroke="#3A53A4" stroke-linecap="round" stroke-linejoin="round" points="503.851,634.928 538.255,660.47 
		527.482,637.016 527.031,593.077 537.089,573.075 503.136,591.474 	"/>
	<polygon fill="none" stroke="#3A53A4" stroke-linecap="round" stroke-linejoin="round" points="564.392,605.445 678.278,491.754 
		683.745,353.607 629.005,417.453 580.333,459.246 554.537,487.529 529.333,529.162 	"/>
	<polygon fill="none" stroke="#3A53A4" stroke-linecap="round" stroke-linejoin="round" points="532.617,803.531 536.902,796.58 
		536.153,743.27 540.845,710.715 510.32,729.077 501.344,768.582 	"/>
	<polygon fill="none" stroke="#3A53A4" stroke-linecap="round" stroke-linejoin="round" points="534.005,834.586 505.609,822.954 
		549.132,812.834 611.385,803.499 603.229,761.83 569.371,782.797 	"/>
	<polygon fill="none" stroke="#3A53A4" stroke-linecap="round" stroke-linejoin="round" points="550.118,2041.584 527.667,2092.761 
		558.425,2111.082 589.569,2064.109 611.484,2055.578 602.79,2051.375 	"/>
	<polygon fill="none" stroke="#3A53A4" stroke-linecap="round" stroke-linejoin="round" points="514.194,1648.113 520.83,1695.717 
		562.932,1712.225 600.308,1692.063 600.071,1644.707 556.061,1617.266 	"/>
	<polygon fill="none" stroke="#3A53A4" stroke-linecap="round" stroke-linejoin="round" points="510.628,992.403 577.112,970.068 
		614.813,951.106 570.326,935.987 520.021,966.434 498.021,1003.888 	"/>
	<polygon fill="none" stroke="#3A53A4" stroke-linecap="round" stroke-linejoin="round" points="529.333,529.162 554.537,487.529 
		535.37,533.658 537.089,573.075 527.031,593.077 	"/>
	<polygon fill="none" stroke="#3A53A4" stroke-linecap="round" stroke-linejoin="round" points="506.64,695.239 527.482,637.016 
		538.255,660.47 540.845,710.715 536.153,743.27 	"/>
	<polygon fill="none" stroke="#3A53A4" stroke-linecap="round" stroke-linejoin="round" points="532.617,803.531 506.047,843.017 
		534.005,834.586 569.371,782.797 545.699,784.276 536.902,796.58 	"/>
	<polygon fill="none" stroke="#3A53A4" stroke-linecap="round" stroke-linejoin="round" points="529.989,1324.875 522.839,1370.096 
		553.644,1400.145 596.169,1395.273 627.315,1365.008 621.209,1326.604 570.776,1304.72 	"/>
	<polygon fill="none" stroke="#3A53A4" stroke-linecap="round" stroke-linejoin="round" points="537.52,1059.428 573.08,1104.061 
		603.338,1094.706 619.483,1025.932 580.403,979.167 528.696,1003.309 	"/>
	<polygon fill="none" stroke="#3A53A4" stroke-linecap="round" stroke-linejoin="round" points="579.557,763.309 545.699,784.276 
		569.371,782.797 603.229,761.83 	"/>
	<polygon fill="none" stroke="#3A53A4" stroke-linecap="round" stroke-linejoin="round" points="528.257,1471.678 588.913,1490.081 
		643.031,1456.164 633.509,1419.194 596.169,1395.273 553.644,1400.145 520.332,1433.496 	"/>
	<polygon fill="none" stroke="#3A53A4" stroke-linecap="round" stroke-linejoin="round" points="576.526,2153.255 614.04,2138.487 
		618.569,2080.783 589.569,2064.109 558.425,2111.082 	"/>
	<polygon fill="none" stroke="#3A53A4" stroke-linecap="round" stroke-linejoin="round" points="575.415,1824.504 625.569,1802.881 
		620.885,1762.689 571.979,1753.191 543.712,1788.954 	"/>
	<polygon fill="none" stroke="#3A53A4" stroke-linecap="round" stroke-linejoin="round" points="542.464,438.329 592.889,452.69 
		641.561,410.897 627.21,353.975 566.601,347.391 530.525,389.952 	"/>
	<polygon fill="none" stroke="#3A53A4" stroke-linecap="round" stroke-linejoin="round" points="550.118,2041.584 602.79,2051.375 
		644.235,2025.529 643.735,1971.732 595.975,1953.76 543.802,1997.766 	"/>
	<polygon fill="none" stroke="#3A53A4" stroke-linecap="round" stroke-linejoin="round" points="545.128,265.826 535.606,307.683 
		566.601,347.391 627.21,353.975 666.726,313.271 649.265,258.987 590.757,240.511 	"/>
	<polygon fill="none" stroke="#3A53A4" stroke-linecap="round" stroke-linejoin="round" points="544.714,1571.216 556.061,1617.266 
		600.071,1644.707 642.088,1631.555 669.986,1588.115 660.744,1549.136 596.327,1541.039 	"/>
	<polygon fill="none" stroke="#3A53A4" stroke-linecap="round" stroke-linejoin="round" points="562.932,1712.225 571.979,1753.191 
		620.885,1762.689 637.009,1727.211 600.308,1692.063 	"/>
	<polygon fill="none" stroke="#3A53A4" stroke-linecap="round" stroke-linejoin="round" points="549.132,812.834 543.767,842.595 
		590.109,888.963 634.132,859.395 611.385,803.499 	"/>
	<polygon fill="none" stroke="#3A53A4" stroke-linecap="round" stroke-linejoin="round" points="586.505,1229.524 617.164,1179.948 
		603.338,1094.706 573.08,1104.061 558.89,1171.071 	"/>
	<polygon fill="none" stroke="#3A53A4" stroke-linecap="round" stroke-linejoin="round" points="588.601,1249.639 570.776,1304.72 
		621.209,1326.604 657.538,1293.333 642.485,1241.938 	"/>
	<polygon fill="none" stroke="#3A53A4" stroke-linecap="round" stroke-linejoin="round" points="576.526,2153.255 563.736,2201.104 
		592.956,2240.303 642.93,2227.447 651.224,2173.479 614.04,2138.487 	"/>
	<polygon fill="none" stroke="#3A53A4" stroke-linecap="round" stroke-linejoin="round" points="563.513,2214.311 598.343,2209.813 
		650.7,2222.501 643.903,2226.799 590.618,2248.398 	"/>
	<polygon fill="none" stroke="#3A53A4" stroke-linecap="round" stroke-linejoin="round" points="586.505,1229.524 594.104,1234.332 
		663.463,1227.42 732.582,1266.84 693.882,1224.176 617.164,1179.948 	"/>
	<polygon fill="none" stroke="#3A53A4" stroke-linecap="round" stroke-linejoin="round" points="559.332,1872.994 602.256,1901.42 
		652.384,1867.668 659.614,1817.619 625.569,1802.881 575.415,1824.504 	"/>
	<polygon fill="none" stroke="#3A53A4" stroke-linecap="round" stroke-linejoin="round" points="562.288,2260.624 590.618,2248.398 
		643.903,2226.799 642.93,2227.447 592.956,2240.303 570.878,2286.576 565.64,2278.229 	"/>
	<polygon fill="none" stroke="#3A53A4" stroke-linecap="round" stroke-linejoin="round" points="561.369,892.065 570.326,935.987 
		614.813,951.106 662.716,918.583 652.224,911.986 595.364,900.587 	"/>
	<polygon fill="none" stroke="#3A53A4" stroke-linecap="round" stroke-linejoin="round" points="590.109,888.963 595.364,900.587 
		652.224,911.986 705.54,941.803 692.704,900.836 634.132,859.395 	"/>
	<polygon fill="none" stroke="#3A53A4" stroke-linecap="round" stroke-linejoin="round" points="611.484,2055.578 589.569,2064.109 
		618.569,2080.783 665.622,2065.986 667.313,2055.03 	"/>
	<polygon fill="none" stroke="#3A53A4" stroke-linecap="round" stroke-linejoin="round" points="627.315,1365.008 596.169,1395.273 
		633.509,1419.194 664.655,1388.929 	"/>
	<polygon fill="none" stroke="#3A53A4" stroke-linecap="round" stroke-linejoin="round" points="588.601,1249.639 642.485,1241.938 
		685.953,1217.283 663.463,1227.42 594.104,1234.332 566.488,1175.878 567.229,1163.972 563.451,1219.99 	"/>
	<polygon fill="none" stroke="#3A53A4" stroke-linecap="round" stroke-linejoin="round" points="600.071,1644.707 600.308,1692.063 
		637.009,1727.211 679.368,1720.771 684.683,1672.471 642.088,1631.555 	"/>
	<polygon fill="none" stroke="#3A53A4" stroke-linecap="round" stroke-linejoin="round" points="590.757,240.511 649.265,258.987 
		697.548,227.713 696.811,181.895 655.927,152.677 601.769,154.061 572.36,189.455 	"/>
	<polygon fill="none" stroke="#3A53A4" stroke-linecap="round" stroke-linejoin="round" points="628.929,2193.016 681.286,2205.703 
		650.7,2222.501 598.343,2209.813 	"/>
	<polygon fill="none" stroke="#3A53A4" stroke-linecap="round" stroke-linejoin="round" points="580.333,459.246 629.005,417.453 
		641.561,410.897 592.889,452.69 	"/>
	<polygon fill="none" stroke="#3A53A4" stroke-linecap="round" stroke-linejoin="round" points="618.569,2080.783 614.04,2138.487 
		651.224,2173.479 682.784,2156.034 657.237,2083.953 663.402,2058.678 665.622,2065.986 	"/>
	<polygon fill="none" stroke="#3A53A4" stroke-linecap="round" stroke-linejoin="round" points="602.256,1901.42 595.975,1953.76 
		643.735,1971.732 690.769,1932.174 693.135,1880.448 652.384,1867.668 	"/>
	<polygon fill="none" stroke="#3A53A4" stroke-linecap="round" stroke-linejoin="round" points="611.484,2055.578 667.313,2055.03 
		686.125,2044.717 644.235,2025.529 602.79,2051.375 	"/>
	<polygon fill="none" stroke="#3A53A4" stroke-linecap="round" stroke-linejoin="round" points="580.403,979.167 619.483,1025.932 
		687.888,1007.457 716.032,948.399 662.716,918.583 614.813,951.106 577.112,970.068 	"/>
	<polygon fill="none" stroke="#3A53A4" stroke-linecap="round" stroke-linejoin="round" points="588.913,1490.081 596.327,1541.039 
		660.744,1549.136 721.912,1515.575 711.614,1473.563 643.031,1456.164 	"/>
	<polygon fill="none" stroke="#3A53A4" stroke-linecap="round" stroke-linejoin="round" points="625.569,1802.881 659.614,1817.619 
		703.427,1794.211 717.509,1753.076 679.368,1720.771 637.009,1727.211 620.885,1762.689 	"/>
	<polygon fill="none" stroke="#3A53A4" stroke-linecap="round" stroke-linejoin="round" points="621.209,1326.604 627.315,1365.008 
		664.655,1388.929 713.722,1382.131 735.839,1336.881 705.282,1295.626 657.538,1293.333 	"/>
	<polygon fill="none" stroke="#3A53A4" stroke-linecap="round" stroke-linejoin="round" points="644.235,2025.529 686.125,2044.717 
		731.101,2007.283 736.243,1948.537 690.769,1932.174 643.735,1971.732 	"/>
	<polygon fill="none" stroke="#3A53A4" stroke-linecap="round" stroke-linejoin="round" points="657.538,1293.333 705.282,1295.626 
		727.586,1251.036 685.953,1217.283 642.485,1241.938 	"/>
	<polygon fill="none" stroke="#3A53A4" stroke-linecap="round" stroke-linejoin="round" points="669.986,1588.115 642.088,1631.555 
		684.683,1672.471 725.77,1655.693 721.665,1603.172 	"/>
	<polygon fill="none" stroke="#3A53A4" stroke-linecap="round" stroke-linejoin="round" points="683.745,353.607 735.816,306.349 
		666.726,313.271 627.21,353.975 641.561,410.897 629.005,417.453 	"/>
	<polygon fill="none" stroke="#3A53A4" stroke-linecap="round" stroke-linejoin="round" points="643.031,1456.164 711.614,1473.563 
		751.159,1429.793 713.722,1382.131 664.655,1388.929 633.509,1419.194 	"/>
	<polygon fill="none" stroke="#3A53A4" stroke-linecap="round" stroke-linejoin="round" points="652.384,1867.668 693.135,1880.448 
		726.976,1833.043 703.427,1794.211 659.614,1817.619 	"/>
	<polygon fill="none" stroke="#3A53A4" stroke-linecap="round" stroke-linejoin="round" points="651.224,2173.479 642.93,2227.447 
		643.903,2226.799 650.7,2222.501 681.286,2205.703 682.784,2156.034 	"/>
	<polygon fill="none" stroke="#3A53A4" stroke-linecap="round" stroke-linejoin="round" points="621.839,2103.832 657.237,2083.953 
		682.784,2156.034 681.286,2205.703 628.929,2193.016 	"/>
	<polygon fill="none" stroke="#3A53A4" stroke-linecap="round" stroke-linejoin="round" points="678.913,110.207 655.927,152.677 
		696.811,181.895 746.972,148.226 733.296,106.089 	"/>
	<polygon fill="none" stroke="#3A53A4" stroke-linecap="round" stroke-linejoin="round" points="652.224,911.986 662.716,918.583 
		716.032,948.399 705.54,941.803 	"/>
	<polygon fill="none" stroke="#3A53A4" stroke-linecap="round" stroke-linejoin="round" points="666.726,313.271 735.816,306.349 
		755.019,251.731 697.548,227.713 649.265,258.987 	"/>
	<polygon fill="none" stroke="#3A53A4" stroke-linecap="round" stroke-linejoin="round" points="669.986,1588.115 721.665,1603.172 
		761.532,1583.188 771.021,1534.57 721.912,1515.575 660.744,1549.136 	"/>
	<polygon fill="none" stroke="#3A53A4" stroke-linecap="round" stroke-linejoin="round" points="710.067,2010.289 731.101,2007.283 
		686.125,2044.717 667.313,2055.03 665.622,2065.986 663.402,2058.678 	"/>
	<polygon fill="none" stroke="#3A53A4" stroke-linecap="round" stroke-linejoin="round" points="684.683,1672.471 679.368,1720.771 
		717.509,1753.076 762.84,1724.15 765.786,1675.068 725.77,1655.693 	"/>
	<polygon fill="none" stroke="#3A53A4" stroke-linecap="round" stroke-linejoin="round" points="690.769,1932.174 736.243,1948.537 
		792.058,1896.627 780.425,1832.859 726.976,1833.043 693.135,1880.448 	"/>
	<polygon fill="none" stroke="#3A53A4" stroke-linecap="round" stroke-linejoin="round" points="732.582,1266.84 663.463,1227.42 
		685.953,1217.283 727.586,1251.036 778.2,1268.643 	"/>
	<polygon fill="none" stroke="#3A53A4" stroke-linecap="round" stroke-linejoin="round" points="696.811,181.895 697.548,227.713 
		755.019,251.731 780.301,193.742 746.972,148.226 	"/>
	<polygon fill="none" stroke="#3A53A4" stroke-linecap="round" stroke-linejoin="round" points="717.509,1753.076 703.427,1794.211 
		726.976,1833.043 780.425,1832.859 802.207,1765.104 762.84,1724.15 	"/>
	<polygon fill="none" stroke="#3A53A4" stroke-linecap="round" stroke-linejoin="round" points="735.839,1336.881 789.905,1324.904 
		778.2,1268.643 727.586,1251.036 705.282,1295.626 	"/>
	<polygon fill="none" stroke="#3A53A4" stroke-linecap="round" stroke-linejoin="round" points="721.665,1603.172 725.77,1655.693 
		765.786,1675.068 790.495,1627.363 761.532,1583.188 	"/>
	<polygon fill="none" stroke="#3A53A4" stroke-linecap="round" stroke-linejoin="round" points="735.839,1336.881 713.722,1382.131 
		751.159,1429.793 809.351,1429.08 825.979,1369.439 789.905,1324.904 	"/>
	<polygon fill="none" stroke="#3A53A4" stroke-linecap="round" stroke-linejoin="round" points="692.704,900.836 705.54,941.803 
		716.032,948.399 687.888,1007.457 693.304,945.157 	"/>
	<polygon fill="none" stroke="#3A53A4" stroke-linecap="round" stroke-linejoin="round" points="751.501,1933.082 792.058,1896.627 
		736.243,1948.537 731.101,2007.283 710.067,2010.289 	"/>
	<polygon fill="none" stroke="#3A53A4" stroke-linecap="round" stroke-linejoin="round" points="738.078,58.05 733.296,106.089 
		746.972,148.226 780.301,193.742 807.465,93.555 778.919,0 	"/>
	<polygon fill="none" stroke="#3A53A4" stroke-linecap="round" stroke-linejoin="round" points="711.614,1473.563 721.912,1515.575 
		771.021,1534.57 835.064,1527.202 854.146,1479.66 809.351,1429.08 751.159,1429.793 	"/>
	<polygon fill="none" stroke="#3A53A4" stroke-linecap="round" stroke-linejoin="round" points="771.021,1534.57 761.532,1583.188 
		790.495,1627.363 841.351,1593.334 835.064,1527.202 	"/>
	<polygon fill="none" stroke="#3A53A4" stroke-linecap="round" stroke-linejoin="round" points="762.84,1724.15 802.207,1765.104 
		856.009,1681.99 841.351,1593.334 790.495,1627.363 765.786,1675.068 	"/>
	<polygon fill="none" stroke="#3A53A4" stroke-linecap="round" stroke-linejoin="round" points="693.882,1224.176 732.582,1266.84 
		778.2,1268.643 789.905,1324.904 825.979,1369.439 870.774,1420.021 791.724,1305.873 	"/>
	<polygon fill="none" stroke="#3A53A4" stroke-linecap="round" stroke-linejoin="round" points="793.668,1786.202 856.009,1681.99 
		802.207,1765.104 780.425,1832.859 792.058,1896.627 751.501,1933.082 	"/>
	<polygon fill="none" stroke="#3A53A4" stroke-linecap="round" stroke-linejoin="round" points="825.979,1369.439 809.351,1429.08 
		854.146,1479.66 870.774,1420.021 	"/>
	<polygon fill="none" stroke="#3A53A4" stroke-linecap="round" stroke-linejoin="round" points="719.04,1535.855 791.724,1305.873 
		870.774,1420.021 854.146,1479.66 835.064,1527.202 841.351,1593.334 856.009,1681.99 793.668,1786.202 	"/>
	
		<line fill="none" stroke="#3A53A4" stroke-linecap="round" stroke-linejoin="round" x1="66.134" y1="829.193" x2="26.884" y2="830.678"/>
	
		<line fill="none" stroke="#3A53A4" stroke-linecap="round" stroke-linejoin="round" x1="80.697" y1="905.109" x2="39.826" y2="905.327"/>
	
		<line fill="none" stroke="#3A53A4" stroke-linecap="round" stroke-linejoin="round" x1="78.952" y1="1154.951" x2="41.326" y2="1162.048"/>
	
		<line fill="none" stroke="#3A53A4" stroke-linecap="round" stroke-linejoin="round" x1="87.544" y1="1224.577" x2="34.326" y2="1217.921"/>
	
		<line fill="none" stroke="#3A53A4" stroke-linecap="round" stroke-linejoin="round" x1="89.758" y1="1291.369" x2="41.326" y2="1286.887"/>
	
		<line fill="none" stroke="#3A53A4" stroke-linecap="round" stroke-linejoin="round" x1="76.053" y1="1352.694" x2="38.826" y2="1341.459"/>
	
		<line fill="none" stroke="#3A53A4" stroke-linecap="round" stroke-linejoin="round" x1="73.052" y1="1874.166" x2="39.326" y2="1893.324"/>
	
		<line fill="none" stroke="#3A53A4" stroke-linecap="round" stroke-linejoin="round" x1="103.615" y1="2341.572" x2="42.826" y2="2373.465"/>
	
		<line fill="none" stroke="#3A53A4" stroke-linecap="round" stroke-linejoin="round" x1="163.699" y1="2351.857" x2="163.699" y2="2405.465"/>
</g>
</svg>
